<?xml version="1.0" encoding="UTF-8" standalone="yes"?>
<!DOCTYPE svg PUBLIC "-//W3C//DTD SVG 1.1//EN" "http://www.w3.org/Graphics/SVG/1.1/DTD/svg11.dtd">
<svg xmlns="http://www.w3.org/2000/svg" xmlns:xlink="http://www.w3.org/1999/xlink" version="1.1" width="3300" height="2200"><!--glyph: "uni100000.medium", point size: 100.000000, font version: "Version 15.0d4e20", template writer version: "2"--><style>
     /*  */
     .text {
       stroke:none;
       fill:black;
       font-family:-apple-system,"SF Pro Display","SF Pro Text",Helvetica,sans-serif;
     }
     /*  */
 </style><g id="Notes"><rect height="2200" id="artboard" style="fill:white;opacity:1" width="3300" x="0" y="0"/><line id="" style="fill:none;stroke:black;opacity:1;stroke-width:0.5;" x1="263" x2="3036" y1="292" y2="292"/><text class="text" style="font-weight:bold;" transform="translate(263 322)">Weight/Scale Variations</text><text class="text" style="text-anchor:middle;" transform="translate(559.711 322)">Ultralight</text><text class="text" style="text-anchor:middle;" transform="translate(856.422 322)">Thin</text><text class="text" style="text-anchor:middle;" transform="translate(1153.13 322)">Light</text><text class="text" style="text-anchor:middle;" transform="translate(1449.84 322)">Regular</text><text class="text" style="text-anchor:middle;" transform="translate(1746.56 322)">Medium</text><text class="text" style="text-anchor:middle;" transform="translate(2043.27 322)">Semibold</text><text class="text" style="text-anchor:middle;" transform="translate(2339.98 322)">Bold</text><text class="text" style="text-anchor:middle;" transform="translate(2636.69 322)">Heavy</text><text class="text" style="text-anchor:middle;" transform="translate(2933.4 322)">Black</text><line id="" style="fill:none;stroke:black;opacity:1;stroke-width:0.5;" x1="263" x2="3036" y1="1903" y2="1903"/><g id="" transform="translate(263 1933)"><path d="M 9.24805 0.830078 C 13.5547 0.830078 17.1387 -2.74414 17.1387 -7.05078 C 17.1387 -11.3574 13.5449 -14.9316 9.23828 -14.9316 C 4.94141 -14.9316 1.36719 -11.3574 1.36719 -7.05078 C 1.36719 -2.74414 4.95117 0.830078 9.24805 0.830078 Z M 9.24805 -0.654297 C 5.70312 -0.654297 2.87109 -3.49609 2.87109 -7.05078 C 2.87109 -10.6055 5.69336 -13.4473 9.23828 -13.4473 C 12.793 -13.4473 15.6348 -10.6055 15.6445 -7.05078 C 15.6543 -3.49609 12.8027 -0.654297 9.24805 -0.654297 Z M 9.22852 -3.42773 C 9.69727 -3.42773 9.9707 -3.74023 9.9707 -4.25781 L 9.9707 -6.31836 L 12.1973 -6.31836 C 12.6953 -6.31836 13.0371 -6.57227 13.0371 -7.04102 C 13.0371 -7.51953 12.7148 -7.7832 12.1973 -7.7832 L 9.9707 -7.7832 L 9.9707 -10.0098 C 9.9707 -10.5273 9.69727 -10.8496 9.22852 -10.8496 C 8.75977 -10.8496 8.50586 -10.5078 8.50586 -10.0098 L 8.50586 -7.7832 L 6.29883 -7.7832 C 5.78125 -7.7832 5.44922 -7.51953 5.44922 -7.04102 C 5.44922 -6.57227 5.80078 -6.31836 6.29883 -6.31836 L 8.50586 -6.31836 L 8.50586 -4.25781 C 8.50586 -3.75977 8.75977 -3.42773 9.22852 -3.42773 Z"/></g><g id="" transform="translate(281.506 1933)"><path d="M 11.709 2.91016 C 17.1484 2.91016 21.6699 -1.60156 21.6699 -7.05078 C 21.6699 -12.4902 17.1387 -17.0117 11.6992 -17.0117 C 6.25 -17.0117 1.74805 -12.4902 1.74805 -7.05078 C 1.74805 -1.60156 6.25977 2.91016 11.709 2.91016 Z M 11.709 1.25 C 7.09961 1.25 3.41797 -2.44141 3.41797 -7.05078 C 3.41797 -11.6504 7.08984 -15.3516 11.6992 -15.3516 C 16.2988 -15.3516 20 -11.6504 20.0098 -7.05078 C 20.0195 -2.44141 16.3086 1.25 11.709 1.25 Z M 11.6797 -2.41211 C 12.207 -2.41211 12.5195 -2.77344 12.5195 -3.33984 L 12.5195 -6.23047 L 15.5762 -6.23047 C 16.123 -6.23047 16.5039 -6.51367 16.5039 -7.03125 C 16.5039 -7.55859 16.1426 -7.86133 15.5762 -7.86133 L 12.5195 -7.86133 L 12.5195 -10.9277 C 12.5195 -11.5039 12.207 -11.8555 11.6797 -11.8555 C 11.1621 -11.8555 10.8789 -11.4844 10.8789 -10.9277 L 10.8789 -7.86133 L 7.83203 -7.86133 C 7.25586 -7.86133 6.89453 -7.55859 6.89453 -7.03125 C 6.89453 -6.51367 7.28516 -6.23047 7.83203 -6.23047 L 10.8789 -6.23047 L 10.8789 -3.33984 C 10.8789 -2.79297 11.1621 -2.41211 11.6797 -2.41211 Z"/></g><g id="" transform="translate(304.914 1933)"><path d="M 14.9707 5.67383 C 21.9336 5.67383 27.6855 -0.078125 27.6855 -7.04102 C 27.6855 -14.0039 21.9238 -19.7559 14.9609 -19.7559 C 7.99805 -19.7559 2.25586 -14.0039 2.25586 -7.04102 C 2.25586 -0.078125 8.00781 5.67383 14.9707 5.67383 Z M 14.9707 3.85742 C 8.92578 3.85742 4.08203 -1.00586 4.08203 -7.04102 C 4.08203 -13.0762 8.91602 -17.9395 14.9609 -17.9395 C 20.9961 -17.9395 25.8594 -13.0762 25.8691 -7.04102 C 25.8789 -1.00586 21.0059 3.85742 14.9707 3.85742 Z M 14.9414 -1.06445 C 15.5176 -1.06445 15.8594 -1.45508 15.8594 -2.06055 L 15.8594 -6.13281 L 20.0977 -6.13281 C 20.6934 -6.13281 21.1133 -6.46484 21.1133 -7.02148 C 21.1133 -7.59766 20.7227 -7.93945 20.0977 -7.93945 L 15.8594 -7.93945 L 15.8594 -12.1875 C 15.8594 -12.8027 15.5176 -13.1934 14.9414 -13.1934 C 14.3848 -13.1934 14.0625 -12.7832 14.0625 -12.1875 L 14.0625 -7.93945 L 9.82422 -7.93945 C 9.20898 -7.93945 8.80859 -7.59766 8.80859 -7.02148 C 8.80859 -6.46484 9.23828 -6.13281 9.82422 -6.13281 L 14.0625 -6.13281 L 14.0625 -2.06055 C 14.0625 -1.47461 14.3848 -1.06445 14.9414 -1.06445 Z"/></g><text class="text" style="font-weight:bold;" transform="translate(263 1953)">Design Variations</text><text class="text" transform="translate(263 1971)">Symbols are supported in up to nine weights and three scales.</text><text class="text" transform="translate(263 1989)">For optimal layout with text and other symbols, vertically align</text><text class="text" transform="translate(263 2007)">symbols with the adjacent text.</text><rect height="14" id="" style="fill:#00AEEF;stroke:none;opacity:0.4;" width="3" x="776" y="1919"/><g id="" transform="translate(779 1933)"><path d="M 10.5273 0 L 12.373 0 L 7.17773 -14.0918 L 5.43945 -14.0918 L 0.244141 0 L 2.08984 0 L 3.50586 -4.0332 L 9.11133 -4.0332 Z M 6.2793 -11.9531 L 6.33789 -11.9531 L 8.59375 -5.52734 L 4.02344 -5.52734 Z"/></g><rect height="14" id="" style="fill:#00AEEF;stroke:none;opacity:0.4;" width="3" x="791.617" y="1919"/><text class="text" style="font-weight:bold;" transform="translate(776 1953)">Side Bearings</text><text class="text" transform="translate(776 1971)">Horizontal padding on the left and right side of each symbol</text><text class="text" transform="translate(776 1989)">can be adjusted by modifying the width of the blue rectangles.</text><text class="text" transform="translate(776 2007)">Modifications are automatically applied proportionally to all</text><text class="text" transform="translate(776 2025)">scales and weights.</text><g id="" transform="translate(1289 1933)"><path d="M 2.96875 2.35352 L 3.80859 3.19336 C 4.84375 4.22852 6.12305 4.15039 7.19727 2.97852 L 16.1621 -6.82617 C 16.5527 -6.74805 16.9629 -6.8457 17.4902 -7.02148 C 18.1738 -7.25586 18.2715 -7.25586 18.3887 -7.13867 C 18.5352 -7.01172 18.4863 -6.89453 18.2422 -6.25 C 17.8809 -5.33203 17.8125 -4.79492 18.5547 -4.02344 L 19.4238 -3.13477 C 20.2734 -2.24609 21.3281 -2.26562 22.2168 -3.14453 L 25.0586 -5.97656 C 25.9473 -6.86523 25.957 -7.92969 25.0781 -8.7793 L 24.1797 -9.64844 C 23.4082 -10.4004 22.8711 -10.3516 21.9629 -9.98047 C 21.3184 -9.72656 21.2012 -9.6875 21.0645 -9.81445 C 20.9375 -9.93164 20.9473 -10.0391 21.1816 -10.7129 C 21.5332 -11.6895 21.5723 -12.2852 20.752 -13.0957 L 19.3359 -14.5117 C 15.1953 -18.6133 11.2305 -18.7402 7.65625 -15.4395 C 7.08008 -14.9023 6.99219 -14.1504 7.53906 -13.6133 L 7.79297 -13.3594 C 8.22266 -12.9297 8.86719 -12.8418 9.41406 -13.1152 C 11.0645 -13.9453 12.2559 -14.0234 13.457 -12.9785 L 13.0273 -11.416 C 12.8516 -10.8008 12.793 -10.3418 12.9199 -9.93164 L 3.18359 -1.04492 C 2.02148 0.0292969 1.93359 1.32812 2.96875 2.35352 Z M 8.96484 -14.4922 C 8.89648 -14.5703 8.86719 -14.6582 8.99414 -14.7559 C 11.709 -17.2852 15.0391 -16.8457 18.3496 -13.5254 L 19.6973 -12.168 C 20.0879 -11.7773 20.0977 -11.582 19.8828 -10.8691 C 19.6582 -10.127 19.502 -9.53125 20.1465 -8.88672 C 20.8105 -8.22266 21.2891 -8.41797 22.207 -8.63281 C 22.9004 -8.79883 23.0664 -8.79883 23.4473 -8.41797 L 24.0918 -7.77344 C 24.4043 -7.48047 24.4141 -7.32422 24.0723 -6.97266 L 21.2207 -4.13086 C 20.8887 -3.79883 20.7227 -3.79883 20.4297 -4.10156 L 19.7852 -4.75586 C 19.4141 -5.13672 19.4141 -5.30273 19.5801 -6.01562 C 19.7852 -6.88477 19.9805 -7.38281 19.3262 -8.04688 C 18.6719 -8.7207 18.0762 -8.57422 17.3438 -8.33008 C 16.5625 -8.06641 16.3281 -8.06641 15.8984 -8.49609 L 14.6094 -9.78516 C 14.1699 -10.2246 14.1309 -10.4395 14.2676 -10.9082 L 15.0293 -13.3984 C 13.3887 -15.2832 11.4941 -15.5566 9.20898 -14.4434 C 9.11133 -14.3945 9.04297 -14.4141 8.96484 -14.4922 Z M 3.96484 1.36719 C 3.52539 0.927734 3.54492 0.537109 4.14062 -0.00976562 L 13.7402 -8.81836 L 15 -7.55859 L 6.17188 2.02148 C 5.625 2.60742 5.24414 2.64648 4.79492 2.19727 Z"/></g><text class="text" style="font-weight:bold;" transform="translate(1289 1953)">Exporting</text><text class="text" transform="translate(1289 1971)">Symbols should be outlined when exporting to ensure the</text><text class="text" transform="translate(1289 1989)">design is preserved when submitting to Xcode.</text><text class="text" transform="translate(263 726)">Small</text><text class="text" transform="translate(263 1156)">Medium</text><text class="text" transform="translate(263 1586)">Large</text></g><g id="Guides"><g id="H-reference" style="fill:#27AAE1;stroke:none;" transform="translate(339 696)"><path d="M 54.9316 0 L 57.666 0 L 30.5664 -70.459 L 28.0762 -70.459 L 0.976562 0 L 3.66211 0 L 12.9395 -24.4629 L 45.7031 -24.4629 Z M 29.1992 -67.0898 L 29.4434 -67.0898 L 44.8242 -26.709 L 13.8184 -26.709 Z"/></g><line id="Baseline-S" style="fill:none;stroke:#27AAE1;opacity:1;stroke-width:0.577;" x1="263" x2="3036" y1="696" y2="696"/><line id="Capline-S" style="fill:none;stroke:#27AAE1;opacity:1;stroke-width:0.577;" x1="263" x2="3036" y1="625.541" y2="625.541"/><g id="H-reference" style="fill:#27AAE1;stroke:none;" transform="translate(339 1126)"><path d="M 54.9316 0 L 57.666 0 L 30.5664 -70.459 L 28.0762 -70.459 L 0.976562 0 L 3.66211 0 L 12.9395 -24.4629 L 45.7031 -24.4629 Z M 29.1992 -67.0898 L 29.4434 -67.0898 L 44.8242 -26.709 L 13.8184 -26.709 Z"/></g><line id="Baseline-M" style="fill:none;stroke:#27AAE1;opacity:1;stroke-width:0.577;" x1="263" x2="3036" y1="1126" y2="1126"/><line id="Capline-M" style="fill:none;stroke:#27AAE1;opacity:1;stroke-width:0.577;" x1="263" x2="3036" y1="1055.54" y2="1055.54"/><g id="H-reference" style="fill:#27AAE1;stroke:none;" transform="translate(339 1556)"><path d="M 54.9316 0 L 57.666 0 L 30.5664 -70.459 L 28.0762 -70.459 L 0.976562 0 L 3.66211 0 L 12.9395 -24.4629 L 45.7031 -24.4629 Z M 29.1992 -67.0898 L 29.4434 -67.0898 L 44.8242 -26.709 L 13.8184 -26.709 Z"/></g><line id="Baseline-L" style="fill:none;stroke:#27AAE1;opacity:1;stroke-width:0.577;" x1="263" x2="3036" y1="1556" y2="1556"/><line id="Capline-L" style="fill:none;stroke:#27AAE1;opacity:1;stroke-width:0.577;" x1="263" x2="3036" y1="1485.54" y2="1485.54"/><rect height="119.336" id="left-margin" style="fill:#00AEEF;stroke:none;opacity:0.4;" width="35.900000" x="1391" y="1030.79"/><rect height="119.336" id="right-margin" style="fill:#00AEEF;stroke:none;opacity:0.4;" width="35.200000" x="1463.3269" y="1030.79"/></g><g id="Symbols"><g id="Ultralight-S" transform="translate(515 696)"><path d="M32.4-52.5c0,9.5,5.7,13.6,10.7,15c0.7,0.2,1.2,1.2,1.1,2.5l-1.5,34.3c-0.1,1.9,0.9,3.1,2.3,3.1h1.9c1.2,0,2.3-1.2,2.2-3.1l-1.4-34.4c-0.1-1.4,0.7-2.3,1.9-2.7c4.6-1.5,9.3-6,9.3-14.7c0-11-5.9-20.1-13.2-20.1c-7.4,0-13.3,9.1-13.3,20.1Z"/></g><g id="Thin-S" transform="translate(811 696)"><path d="M32.115-52.733c0,9.491,5.605,13.721,10.605,15.216c0.795,0.261,1.347,1.364,1.221,2.845l-1.655,33.721c-0.126,2.047,0.995,3.35,2.593,3.35h2.15c1.355,0,2.611-1.295,2.485-3.342l-1.555-33.865c-0.126-1.564,0.752-2.568,2.081-3.097c4.557-1.621,9.145-6.181,9.145-14.829c0-11.224-6.029-20.514-13.485-20.514c-7.555,0-13.585,9.29-13.585,20.514Z"/></g><g id="Light-S" transform="translate(1107 696)"><path d="M31.64-53.122c0,9.477,5.447,13.922,10.447,15.576c0.953,0.361,1.591,1.637,1.422,3.421l-1.914,32.758c-0.169,2.291,1.153,3.768,3.083,3.768h2.568c1.614,0,3.129-1.453,2.96-3.745l-1.814-32.973c-0.169-1.837,0.838-3.014,2.383-3.759c4.485-1.822,8.886-6.483,8.886-15.045c0-11.598-6.245-21.205-13.96-21.205c-7.814,0-14.06,9.607-14.06,21.205Z"/></g><g id="Regular-S" transform="translate(1403 696)"><path d="M31.26-53.432c0,9.465,5.32,14.083,10.32,15.863c1.08,0.442,1.787,1.856,1.583,3.881l-2.122,31.986c-0.204,2.487,1.28,4.101,3.474,4.101h2.901c1.822,0,3.543-1.58,3.34-4.067l-2.022-32.259c-0.204-2.056,0.907-3.37,2.625-4.289c4.427-1.983,8.678-6.725,8.678-15.218c0-11.898-6.418-21.758-14.34-21.758c-8.022,0-14.44,9.86-14.44,21.758Z"/></g><g id="Medium-S" transform="translate(1699 696)"><path d="M30.857-53.763c0,9.453,5.186,14.255,10.186,16.169c1.214,0.527,1.995,2.089,1.755,4.37l-2.342,31.167c-0.24,2.695,1.414,4.456,3.89,4.456h3.256c2.042,0,3.983-1.714,3.743-4.409l-2.242-31.501c-0.24-2.288,0.981-3.75,2.882-4.851c4.366-2.155,8.458-6.982,8.458-15.401c0-12.216-6.602-22.345-14.743-22.345c-8.242,0-14.843,10.129-14.843,22.345Z"/></g><g id="Semibold-S" transform="translate(1995 696)"><path d="M30.572-53.996c0,9.445,5.091,14.376,10.091,16.385c1.309,0.588,2.142,2.252,1.876,4.716l-2.497,30.589c-0.266,2.842,1.509,4.707,4.183,4.707h3.506c2.197,0,4.294-1.809,4.028-4.651l-2.397-30.965c-0.266-2.453,1.032-4.017,3.063-5.248c4.323-2.276,8.303-7.163,8.303-15.531c0-12.44-6.731-22.759-15.028-22.759c-8.397,0-15.128,10.319-15.128,22.759Z"/></g><g id="Bold-S" transform="translate(2292 696)"><path d="M30.168-54.326c0,9.432,4.956,14.547,9.956,16.691c1.444,0.673,2.35,2.485,2.047,5.205l-2.717,29.769c-0.303,3.05,1.644,5.061,4.599,5.061h3.861c2.417,0,4.735-1.944,4.432-4.993l-2.617-30.207c-0.303-2.685,1.106-4.396,3.32-5.811c4.262-2.447,8.083-7.42,8.083-15.714c0-12.758-6.914-23.346-15.432-23.346c-8.617,0-15.532,10.588-15.532,23.346Z"/></g><g id="Heavy-S" transform="translate(2587 696)"><path d="M29.622-54.773c0,9.416,4.774,14.779,9.774,17.104c1.626,0.789,2.631,2.799,2.278,5.867l-3.015,28.66c-0.353,3.331,1.826,5.541,5.162,5.541h4.341c2.715,0,5.33-2.126,4.978-5.457l-2.915-29.181c-0.353-2.999,1.205-4.909,3.668-6.572c4.179-2.678,7.785-7.768,7.785-15.963c0-13.189-7.163-24.14-15.978-24.14c-8.915,0-16.078,10.952-16.078,24.14Z"/></g><g id="Black-S" transform="translate(2883 696)"><path d="M29.1-55.2c0,9.4,4.6,15,9.6,17.5c1.8,0.9,2.9,3.1,2.5,6.5l-3.3,27.6c-0.4,3.6,2,6,5.7,6h4.8c3,0,5.9-2.3,5.5-5.9l-3.2-28.2c-0.4-3.3,1.3-5.4,4-7.3c4.1-2.9,7.5-8.1,7.5-16.2c0-13.6-7.4-24.9-16.5-24.9c-9.2,0-16.6,11.3-16.6,24.9Z"/></g><g id="Ultralight-M" transform="translate(503 1126)"><path d="M36.664-57.482c0,11.22,6.519,16.478,12.422,18.306c1.3,0.414,2.228,2.099,2.086,4.427l-1.84,41.839c-0.099,2.283,1.07,3.825,2.809,3.825h2.324c1.497,0,2.852-1.542,2.752-3.825l-1.697-42.11c-0.099-2.385,1.258-3.927,3.315-4.84c5.289-2.185,10.379-7.63,10.379-17.621c0-13.446-7.23-24.562-16.203-24.562c-9.116,0-16.346,11.116-16.346,24.562Z"/></g><g id="Thin-M" transform="translate(799 1126)"><path d="M36.462-57.657c0,11.327,6.478,16.758,12.435,18.724c1.399,0.488,2.378,2.282,2.201,4.803l-2.064,41.25c-0.142,2.498,1.207,4.187,3.227,4.187h2.678c1.717,0,3.292-1.672,3.154-4.174l-1.925-41.574c-0.138-2.552,1.304-4.211,3.492-5.263c5.298-2.331,10.332-7.896,10.332-17.952c0-13.842-7.454-25.291-16.697-25.291c-9.379,0-16.832,11.45-16.832,25.291Z"/></g><g id="Light-M" transform="translate(1095 1126)"><path d="M36.136-57.94c0,11.505,6.412,17.223,12.459,19.416c1.562,0.611,2.623,2.582,2.388,5.42l-2.433,40.285c-0.212,2.853,1.435,4.783,3.917,4.783h3.261c2.08,0,4.017-1.886,3.816-4.749l-2.301-40.696c-0.202-2.827,1.38-4.676,3.784-5.956c5.314-2.57,10.259-8.335,10.259-18.503c0-14.497-7.824-26.498-17.514-26.498c-9.812,0-17.636,12.001-17.636,26.498Z"/></g><g id="Regular-M" transform="translate(1391 1126)"><path d="M35.866-58.173c0,11.653,6.358,17.608,12.48,19.988c1.696,0.712,2.825,2.83,2.543,5.93l-2.739,39.489c-0.27,3.146,1.622,5.276,4.487,5.276h3.743c2.38,0,4.617-2.063,4.363-5.224l-2.611-39.971c-0.254-3.054,1.443-5.06,4.024-6.528c5.328-2.767,10.2-8.698,10.2-18.958c0-15.039-8.13-27.494-18.189-27.494c-10.171,0-18.301,12.456-18.301,27.494Z"/></g><g id="Medium-M" transform="translate(1687 1126)"><path d="M35.611-58.395c0,11.793,6.306,17.971,12.499,20.529c1.823,0.809,3.017,3.065,2.69,6.413l-3.028,38.734c-0.325,3.423,1.8,5.743,5.027,5.743h4.2c2.664,0,5.185-2.231,4.881-5.675l-2.905-39.284c-0.304-3.268,1.502-5.423,4.252-7.071c5.341-2.955,10.143-9.043,10.143-19.389c0-15.551-8.419-28.439-18.828-28.439c-10.511,0-18.93,12.887-18.93,28.439Z"/></g><g id="Semibold-M" transform="translate(1983 1126)"><path d="M35.378-58.594c0,11.892,6.253,18.254,12.496,20.956c1.931,0.888,3.18,3.262,2.817,6.819l-3.262,38.091c-0.369,3.648,1.944,6.121,5.465,6.121h4.571c2.895,0,5.646-2.367,5.302-6.039l-3.143-38.698c-0.344-3.451,1.553-5.731,4.447-7.529c5.342-3.11,10.075-9.321,10.075-19.721c0-15.958-8.65-29.188-19.336-29.188c-10.781,0-19.431,13.229-19.431,29.188Z"/></g><g id="Bold-M" transform="translate(2279 1126)"><path d="M35.122-58.816c0,12.032,6.201,18.618,12.515,21.497c2.058,0.984,3.371,3.497,2.963,7.302l-3.551,37.337c-0.424,3.925,2.122,6.588,6.005,6.588h5.028c3.179,0,6.214-2.535,5.82-6.49l-3.437-38.011c-0.394-3.666,1.613-6.094,4.675-8.071c5.355-3.297,10.018-9.665,10.018-20.152c0-16.471-8.939-30.132-19.976-30.132c-11.121,0-20.06,13.661-20.06,30.132Z"/></g><g id="Heavy-M" transform="translate(2575 1126)"><path d="M34.725-59.16c0,12.25,6.121,19.184,12.545,22.34c2.256,1.134,3.669,3.863,3.192,8.054l-4.001,36.162c-0.509,4.357,2.398,7.314,6.844,7.314h5.738c3.621,0,7.098-2.796,6.626-7.19l-3.895-36.942c-0.472-4,1.705-6.66,5.029-8.914c5.375-3.588,9.93-10.2,9.93-20.823c0-17.269-9.39-31.601-20.97-31.601c-11.649,0-21.039,14.332-21.039,31.601Z"/></g><g id="Black-M" transform="translate(2871 1126)"><path d="M34.43-59.416c0,12.416,6.063,19.612,12.571,22.977c2.404,1.246,3.892,4.137,3.362,8.616l-4.339,35.284c-0.574,4.682,2.606,7.86,7.476,7.86h6.273c3.953,0,7.763-2.992,7.233-7.717l-4.239-36.143c-0.53-4.25,1.774-7.084,5.294-9.546c5.392-3.807,9.868-10.603,9.868-21.331c0-17.871-9.73-32.709-21.721-32.709c-12.047,0-21.777,14.838-21.777,32.709Z"/></g><g id="Ultralight-L" transform="translate(487 1556)"><path d="M42.3-64.1c0,13.5,7.6,20.3,14.7,22.7c2.1,0.7,3.6,3.3,3.4,7l-2.3,51.8c-0.1,2.8,1.3,4.8,3.5,4.8h2.9c1.9,0,3.6-2,3.5-4.8l-2.1-52.3c-0.1-3.7,2-6.1,5.2-7.7c6.2-3.1,11.8-9.8,11.8-21.5c0-16.7-9-30.5-20.2-30.5c-11.4,0-20.4,13.8-20.4,30.5Z"/></g><g id="Thin-L" transform="translate(783 1556)"><path d="M42.237-64.171c0,13.729,7.632,20.727,14.842,23.293c2.187,0.779,3.727,3.474,3.487,7.348l-2.569,51.302c-0.155,3.061,1.466,5.235,3.998,5.235h3.319c2.161,0,4.122-2.15,3.975-5.219l-2.377-51.857c-0.147-3.842,2.032-6.353,5.342-8.08c6.271-3.25,11.895-10.124,11.895-22.022c0-17.238-9.301-31.489-20.864-31.489c-11.748,0-21.049,14.251-21.049,31.489Z"/></g><g id="Light-L" transform="translate(1079 1556)"><path d="M42.115-64.309c0,14.172,7.693,21.551,15.117,24.437c2.355,0.932,3.971,3.81,3.655,8.019l-3.088,50.341c-0.262,3.564,1.786,6.074,4.959,6.074h4.128c2.664,0,5.129-2.44,4.89-6.028l-2.911-51.003c-0.239-4.117,2.093-6.841,5.617-8.812c6.409-3.54,12.078-10.75,12.078-23.029c0-18.275-9.88-33.395-22.146-33.395c-12.419,0-22.299,15.12-22.299,33.395Z"/></g><g id="Regular-L" transform="translate(1374 1556)"><path d="M42.02-64.415c0,14.516,7.74,22.192,15.33,25.327c2.485,1.05,4.16,4.071,3.785,8.541l-3.491,49.593c-0.345,3.956,2.036,6.727,5.707,6.727h4.757c3.056,0,5.912-2.666,5.602-6.656l-3.326-50.338c-0.31-4.33,2.14-7.221,5.83-9.381c6.515-3.765,12.22-11.236,12.22-23.812c0-19.082-10.331-34.878-23.142-34.878c-12.941,0-23.272,15.797-23.272,34.878Z"/></g><g id="Medium-L" transform="translate(1670 1556)"><path d="M41.929-64.517c0,14.843,7.785,22.802,15.534,26.174c2.61,1.163,4.341,4.319,3.91,9.038l-3.875,48.881c-0.424,4.329,2.273,7.348,6.419,7.348h5.355c3.429,0,6.658-2.88,6.28-7.255l-3.721-49.706c-0.378-4.534,2.185-7.582,6.034-9.924c6.617-3.98,12.356-11.7,12.356-24.558c0-19.85-10.76-36.291-24.092-36.291c-13.438,0-24.199,16.441-24.199,36.291Z"/></g><g id="Semibold-L" transform="translate(1967 1556)"><path d="M41.852-64.603c0,15.122,7.824,23.32,15.707,26.895c2.715,1.259,4.495,4.53,4.015,9.461l-4.202,48.276c-0.491,4.646,2.475,7.876,7.024,7.876h5.864c3.746,0,7.292-3.063,6.856-7.764l-4.058-49.168c-0.436-4.707,2.224-7.89,6.207-10.385c6.703-4.163,12.471-12.093,12.471-25.192c0-20.503-11.125-37.491-24.898-37.491c-13.861,0-24.987,16.988-24.987,37.491Z"/></g><g id="Bold-L" transform="translate(2262 1556)"><path d="M41.762-64.705c0,15.45,7.869,23.931,15.91,27.742c2.84,1.372,4.676,4.779,4.14,9.958l-4.586,47.564c-0.571,5.019,2.712,8.498,7.736,8.498h6.463c4.119,0,8.037-3.277,7.534-8.363l-4.453-48.535c-0.503-4.91,2.269-8.251,6.41-10.927c6.805-4.377,12.607-12.556,12.607-25.937c0-21.272-11.555-38.904-25.848-38.904c-14.358,0-25.913,17.632-25.913,38.904Z"/></g><g id="Heavy-L" transform="translate(2558 1556)"><path d="M41.622-64.863c0,15.958,7.939,24.876,16.225,29.056c3.032,1.548,4.956,5.164,4.332,10.729l-5.181,46.461c-0.693,5.597,3.08,9.461,8.839,9.461h7.392c4.697,0,9.193-3.61,8.585-9.292l-5.066-47.554c-0.608-5.225,2.339-8.812,6.725-11.768c6.963-4.71,12.817-13.275,12.817-27.093c0-22.463-12.22-41.093-27.319-41.093c-15.129,0-27.349,18.63-27.349,41.093Z"/></g><g id="Black-L" transform="translate(2854 1556)"><path d="M41.5-65c0,16.4,8,25.7,16.5,30.2c3.2,1.7,5.2,5.5,4.5,11.4l-5.7,45.5c-0.8,6.1,3.4,10.3,9.8,10.3h8.2c5.2,0,10.2-3.9,9.5-10.1l-5.6-46.7c-0.7-5.5,2.4-9.3,7-12.5c7.1-5,13-13.9,13-28.1c0-23.5-12.8-43-28.6-43c-15.8,0-28.6,19.5-28.6,43Z"/></g></g></svg>