<svg id="Layer_1" data-name="Layer 1" xmlns="http://www.w3.org/2000/svg" viewBox="0 0 3300 2200"><defs><style>.cls-1{fill:#fff;}.cls-2,.cls-8,.cls-9{fill:none;stroke-width:0.5px;}.cls-2{stroke:#000;}.cls-3,.cls-6{isolation:isolate;font-size:12px;}.cls-3{font-family:Arial-BoldMT, Arial;font-weight:700;}.cls-4{letter-spacing:-0.02em;}.cls-5{letter-spacing:-0.06em;}.cls-6{font-family:ArialMT, Arial;}.cls-7{fill:#27aae1;}.cls-8{stroke:#27aae1;}.cls-9{stroke:#00aeef;}</style></defs><g id="Notes"><rect id="artboard" class="cls-1" width="3300" height="2200"/><line class="cls-2" x1="263" y1="292" x2="3036" y2="292"/><text class="cls-3" transform="translate(263 322)"><tspan class="cls-4">W</tspan><tspan x="11.11" y="0">eight/Scale </tspan><tspan class="cls-5" x="77.8" y="0">V</tspan><tspan x="85.14" y="0">ariations</tspan></text><text class="cls-6" transform="translate(536.04 322)">Ultralight</text><text class="cls-6" transform="translate(844.75 322)">Thin</text><text class="cls-6" transform="translate(1140.12 322)">Light</text><text class="cls-6" transform="translate(1428.83 322)">Regular</text><text class="cls-6" transform="translate(1725.22 322)">Medium</text><text class="cls-6" transform="translate(2018.26 322)">Semibold</text><text class="cls-6" transform="translate(2327.97 322)">Bold</text><text class="cls-6" transform="translate(2619.68 322)">Heavy</text><text class="cls-6" transform="translate(2918.73 322)">Black</text><line class="cls-2" x1="263" y1="1903" x2="3036" y2="1903"/><text class="cls-6" transform="translate(263 726)">Small</text><text class="cls-6" transform="translate(263 1156)">Medium</text><text class="cls-6" transform="translate(263 1586)">Large</text></g><g id="Guides"><g id="H-reference"><path class="cls-7" d="M340,696h2.68L352,671.54h32.76L394.13,696h2.63l-27.14-70.46h-2.5Zm28.37-67.14h.09l15.43,40.43h-31Z" transform="translate(0 2.66)"/></g><line id="Baseline-S" class="cls-8" x1="263" y1="698.66" x2="3036" y2="698.66"/><line id="Capline-S" class="cls-8" x1="263" y1="628.2" x2="3036" y2="628.2"/><g id="H-reference-2" data-name="H-reference"><path class="cls-7" d="M340,1126h2.68l9.33-24.46h32.76l9.38,24.46h2.63l-27.14-70.46h-2.5Zm28.37-67.14h.09l15.43,40.43h-31Z" transform="translate(0 2.66)"/></g><line id="Baseline-M" class="cls-8" x1="263" y1="1128.66" x2="3036" y2="1128.66"/><line id="Capline-M" class="cls-8" x1="263" y1="1058.2" x2="3036" y2="1058.2"/><g id="H-reference-3" data-name="H-reference"><path class="cls-7" d="M340,1556h2.68l9.33-24.46h32.76l9.38,24.46h2.63l-27.14-70.46h-2.5Zm28.37-67.14h.09l15.43,40.43h-31Z" transform="translate(0 2.66)"/></g><line id="Baseline-L" class="cls-8" x1="263" y1="1558.66" x2="3036" y2="1558.66"/><line id="Capline-L" class="cls-8" x1="263" y1="1488.2" x2="3036" y2="1488.2"/><line id="left-margin" class="cls-9" x1="1388.59" y1="1033.45" x2="1388.59" y2="1152.78"/><line id="right-margin" class="cls-9" x1="1511.1" y1="1033.45" x2="1511.1" y2="1152.78"/></g><g id="Symbols"><g id="Regular-L"><path d="M1502.45,1526.09v-17.63h-6.59a46.9,46.9,0,0,0-93.27,0h-6.13v17.63h6.86l8.27,32.87h-2.51v17.62h80.74V1559h-2.51l8.27-32.87Zm-53.22-54.51a42,42,0,0,1,41.59,36.88h-83.19A42,42,0,0,1,1449.23,1471.58Zm-47.77,49.51v-7.63h.86v0h5v0h83.81v0h5v0h1.32v7.63h-96Zm63.55,37.63H1452V1545h15.36Zm7.37-13.7h13.28l-3.44,13.7h-12.14Zm-40.15,0H1447v13.7h-12.42Zm-2.77,13.7h-12.77l-3.45-13.7h13.92Zm1.93-18.7-2.34-13.93H1447V1540Zm20.56,0v-13.93h18.53l-2.33,13.93Zm-28-13.93,2.34,13.93H1412l-3.5-13.93Zm60.84,45.49h-70.74V1564h70.74Zm2.1-31.56h-13.7l2.33-13.93h14.88Z" transform="translate(0 2.66)"/></g><g id="Regular-M"><path d="M1493.45,1092.59v-15.27H1488a38.62,38.62,0,0,0-76.7,0h-5v15.27H1412l6.49,25.81h-1.91v15.27h66.63V1118.4h-1.91l6.49-25.81Zm-5-5h-77.17v-5.27h77.17Zm-26.32,30.62h-9.76V1108h11.47Zm6.78-10.22h9.82l-2.57,10.22h-9Zm-32.51,0h11v10.22h-9.25Zm-3.35,10.22h-9.48L1421,1108h10.33Zm2.51-15.22-1.74-10.4h13.55V1103Zm16.81,0v-10.4h14.06l-1.75,10.4Zm-2.69-54.75a33.69,33.69,0,0,1,33.32,29.08h-66.63A33.67,33.67,0,0,1,1449.68,1048.24Zm-20.93,44.35,1.75,10.4h-10.76l-2.61-10.4Zm49.43,36.08h-56.63v-5.27h56.63ZM1480,1103h-10.24l1.74-10.4h11.12Z" transform="translate(0 2.66)"/></g><g id="Regular-S"><path d="M1484.5,665.08V652h-4.35a31.07,31.07,0,0,0-61.6,0h-4v13.12h4.61l4.88,19.38h-1.37v13.12h53.75V684.46H1475l4.87-19.38Zm-25.74,19.23H1452v-7h7.94Zm6.25-7h6.65l-1.77,7h-6.06Zm-25.54,0H1447v7h-6.35Zm-3.89,7h-6.48l-1.77-7h7.07Zm3.05-12-1.21-7.19H1447v7.19Zm13.37,0v-7.19h10l-1.21,7.19Zm-32.5-12.19V657h60v3.12ZM1449.35,630a26.12,26.12,0,0,1,25.75,22h-51.5A26.12,26.12,0,0,1,1449.35,630Zm-17,35.08,1.21,7.19h-7.48l-1.81-7.19Zm39,27.5h-43.75v-3.12h43.75Zm1.55-20.31h-7.07l1.2-7.19h7.68Z" transform="translate(0 2.66)"/></g></g></svg>