<?xml version="1.0" encoding="UTF-8" standalone="yes"?>
<!DOCTYPE svg PUBLIC "-//W3C//DTD SVG 1.1//EN" "http://www.w3.org/Graphics/SVG/1.1/DTD/svg11.dtd">
<svg xmlns="http://www.w3.org/2000/svg" xmlns:xlink="http://www.w3.org/1999/xlink" version="1.1" width="3300" height="2200"><!--glyph: "uni100000.medium", point size: 100.000000, font version: "Version 15.0d4e20", template writer version: "2"--><style>
     /*  */
     .text {
       stroke:none;
       fill:black;
       font-family:-apple-system,"SF Pro Display","SF Pro Text",Helvetica,sans-serif;
     }
     /*  */
 </style><g id="Notes"><rect height="2200" id="artboard" style="fill:white;opacity:1" width="3300" x="0" y="0"/><line id="" style="fill:none;stroke:black;opacity:1;stroke-width:0.5;" x1="263" x2="3036" y1="292" y2="292"/><text class="text" style="font-weight:bold;" transform="translate(263 322)">Weight/Scale Variations</text><text class="text" style="text-anchor:middle;" transform="translate(559.711 322)">Ultralight</text><text class="text" style="text-anchor:middle;" transform="translate(856.422 322)">Thin</text><text class="text" style="text-anchor:middle;" transform="translate(1153.13 322)">Light</text><text class="text" style="text-anchor:middle;" transform="translate(1449.84 322)">Regular</text><text class="text" style="text-anchor:middle;" transform="translate(1746.56 322)">Medium</text><text class="text" style="text-anchor:middle;" transform="translate(2043.27 322)">Semibold</text><text class="text" style="text-anchor:middle;" transform="translate(2339.98 322)">Bold</text><text class="text" style="text-anchor:middle;" transform="translate(2636.69 322)">Heavy</text><text class="text" style="text-anchor:middle;" transform="translate(2933.4 322)">Black</text><line id="" style="fill:none;stroke:black;opacity:1;stroke-width:0.5;" x1="263" x2="3036" y1="1903" y2="1903"/><g id="" transform="translate(263 1933)"><path d="M 9.24805 0.830078 C 13.5547 0.830078 17.1387 -2.74414 17.1387 -7.05078 C 17.1387 -11.3574 13.5449 -14.9316 9.23828 -14.9316 C 4.94141 -14.9316 1.36719 -11.3574 1.36719 -7.05078 C 1.36719 -2.74414 4.95117 0.830078 9.24805 0.830078 Z M 9.24805 -0.654297 C 5.70312 -0.654297 2.87109 -3.49609 2.87109 -7.05078 C 2.87109 -10.6055 5.69336 -13.4473 9.23828 -13.4473 C 12.793 -13.4473 15.6348 -10.6055 15.6445 -7.05078 C 15.6543 -3.49609 12.8027 -0.654297 9.24805 -0.654297 Z M 9.22852 -3.42773 C 9.69727 -3.42773 9.9707 -3.74023 9.9707 -4.25781 L 9.9707 -6.31836 L 12.1973 -6.31836 C 12.6953 -6.31836 13.0371 -6.57227 13.0371 -7.04102 C 13.0371 -7.51953 12.7148 -7.7832 12.1973 -7.7832 L 9.9707 -7.7832 L 9.9707 -10.0098 C 9.9707 -10.5273 9.69727 -10.8496 9.22852 -10.8496 C 8.75977 -10.8496 8.50586 -10.5078 8.50586 -10.0098 L 8.50586 -7.7832 L 6.29883 -7.7832 C 5.78125 -7.7832 5.44922 -7.51953 5.44922 -7.04102 C 5.44922 -6.57227 5.80078 -6.31836 6.29883 -6.31836 L 8.50586 -6.31836 L 8.50586 -4.25781 C 8.50586 -3.75977 8.75977 -3.42773 9.22852 -3.42773 Z"/></g><g id="" transform="translate(281.506 1933)"><path d="M 11.709 2.91016 C 17.1484 2.91016 21.6699 -1.60156 21.6699 -7.05078 C 21.6699 -12.4902 17.1387 -17.0117 11.6992 -17.0117 C 6.25 -17.0117 1.74805 -12.4902 1.74805 -7.05078 C 1.74805 -1.60156 6.25977 2.91016 11.709 2.91016 Z M 11.709 1.25 C 7.09961 1.25 3.41797 -2.44141 3.41797 -7.05078 C 3.41797 -11.6504 7.08984 -15.3516 11.6992 -15.3516 C 16.2988 -15.3516 20 -11.6504 20.0098 -7.05078 C 20.0195 -2.44141 16.3086 1.25 11.709 1.25 Z M 11.6797 -2.41211 C 12.207 -2.41211 12.5195 -2.77344 12.5195 -3.33984 L 12.5195 -6.23047 L 15.5762 -6.23047 C 16.123 -6.23047 16.5039 -6.51367 16.5039 -7.03125 C 16.5039 -7.55859 16.1426 -7.86133 15.5762 -7.86133 L 12.5195 -7.86133 L 12.5195 -10.9277 C 12.5195 -11.5039 12.207 -11.8555 11.6797 -11.8555 C 11.1621 -11.8555 10.8789 -11.4844 10.8789 -10.9277 L 10.8789 -7.86133 L 7.83203 -7.86133 C 7.25586 -7.86133 6.89453 -7.55859 6.89453 -7.03125 C 6.89453 -6.51367 7.28516 -6.23047 7.83203 -6.23047 L 10.8789 -6.23047 L 10.8789 -3.33984 C 10.8789 -2.79297 11.1621 -2.41211 11.6797 -2.41211 Z"/></g><g id="" transform="translate(304.914 1933)"><path d="M 14.9707 5.67383 C 21.9336 5.67383 27.6855 -0.078125 27.6855 -7.04102 C 27.6855 -14.0039 21.9238 -19.7559 14.9609 -19.7559 C 7.99805 -19.7559 2.25586 -14.0039 2.25586 -7.04102 C 2.25586 -0.078125 8.00781 5.67383 14.9707 5.67383 Z M 14.9707 3.85742 C 8.92578 3.85742 4.08203 -1.00586 4.08203 -7.04102 C 4.08203 -13.0762 8.91602 -17.9395 14.9609 -17.9395 C 20.9961 -17.9395 25.8594 -13.0762 25.8691 -7.04102 C 25.8789 -1.00586 21.0059 3.85742 14.9707 3.85742 Z M 14.9414 -1.06445 C 15.5176 -1.06445 15.8594 -1.45508 15.8594 -2.06055 L 15.8594 -6.13281 L 20.0977 -6.13281 C 20.6934 -6.13281 21.1133 -6.46484 21.1133 -7.02148 C 21.1133 -7.59766 20.7227 -7.93945 20.0977 -7.93945 L 15.8594 -7.93945 L 15.8594 -12.1875 C 15.8594 -12.8027 15.5176 -13.1934 14.9414 -13.1934 C 14.3848 -13.1934 14.0625 -12.7832 14.0625 -12.1875 L 14.0625 -7.93945 L 9.82422 -7.93945 C 9.20898 -7.93945 8.80859 -7.59766 8.80859 -7.02148 C 8.80859 -6.46484 9.23828 -6.13281 9.82422 -6.13281 L 14.0625 -6.13281 L 14.0625 -2.06055 C 14.0625 -1.47461 14.3848 -1.06445 14.9414 -1.06445 Z"/></g><text class="text" style="font-weight:bold;" transform="translate(263 1953)">Design Variations</text><text class="text" transform="translate(263 1971)">Symbols are supported in up to nine weights and three scales.</text><text class="text" transform="translate(263 1989)">For optimal layout with text and other symbols, vertically align</text><text class="text" transform="translate(263 2007)">symbols with the adjacent text.</text><rect height="14" id="" style="fill:#00AEEF;stroke:none;opacity:0.4;" width="3" x="776" y="1919"/><g id="" transform="translate(779 1933)"><path d="M 10.5273 0 L 12.373 0 L 7.17773 -14.0918 L 5.43945 -14.0918 L 0.244141 0 L 2.08984 0 L 3.50586 -4.0332 L 9.11133 -4.0332 Z M 6.2793 -11.9531 L 6.33789 -11.9531 L 8.59375 -5.52734 L 4.02344 -5.52734 Z"/></g><rect height="14" id="" style="fill:#00AEEF;stroke:none;opacity:0.4;" width="3" x="791.617" y="1919"/><text class="text" style="font-weight:bold;" transform="translate(776 1953)">Side Bearings</text><text class="text" transform="translate(776 1971)">Horizontal padding on the left and right side of each symbol</text><text class="text" transform="translate(776 1989)">can be adjusted by modifying the width of the blue rectangles.</text><text class="text" transform="translate(776 2007)">Modifications are automatically applied proportionally to all</text><text class="text" transform="translate(776 2025)">scales and weights.</text><g id="" transform="translate(1289 1933)"><path d="M 2.96875 2.35352 L 3.80859 3.19336 C 4.84375 4.22852 6.12305 4.15039 7.19727 2.97852 L 16.1621 -6.82617 C 16.5527 -6.74805 16.9629 -6.8457 17.4902 -7.02148 C 18.1738 -7.25586 18.2715 -7.25586 18.3887 -7.13867 C 18.5352 -7.01172 18.4863 -6.89453 18.2422 -6.25 C 17.8809 -5.33203 17.8125 -4.79492 18.5547 -4.02344 L 19.4238 -3.13477 C 20.2734 -2.24609 21.3281 -2.26562 22.2168 -3.14453 L 25.0586 -5.97656 C 25.9473 -6.86523 25.957 -7.92969 25.0781 -8.7793 L 24.1797 -9.64844 C 23.4082 -10.4004 22.8711 -10.3516 21.9629 -9.98047 C 21.3184 -9.72656 21.2012 -9.6875 21.0645 -9.81445 C 20.9375 -9.93164 20.9473 -10.0391 21.1816 -10.7129 C 21.5332 -11.6895 21.5723 -12.2852 20.752 -13.0957 L 19.3359 -14.5117 C 15.1953 -18.6133 11.2305 -18.7402 7.65625 -15.4395 C 7.08008 -14.9023 6.99219 -14.1504 7.53906 -13.6133 L 7.79297 -13.3594 C 8.22266 -12.9297 8.86719 -12.8418 9.41406 -13.1152 C 11.0645 -13.9453 12.2559 -14.0234 13.457 -12.9785 L 13.0273 -11.416 C 12.8516 -10.8008 12.793 -10.3418 12.9199 -9.93164 L 3.18359 -1.04492 C 2.02148 0.0292969 1.93359 1.32812 2.96875 2.35352 Z M 8.96484 -14.4922 C 8.89648 -14.5703 8.86719 -14.6582 8.99414 -14.7559 C 11.709 -17.2852 15.0391 -16.8457 18.3496 -13.5254 L 19.6973 -12.168 C 20.0879 -11.7773 20.0977 -11.582 19.8828 -10.8691 C 19.6582 -10.127 19.502 -9.53125 20.1465 -8.88672 C 20.8105 -8.22266 21.2891 -8.41797 22.207 -8.63281 C 22.9004 -8.79883 23.0664 -8.79883 23.4473 -8.41797 L 24.0918 -7.77344 C 24.4043 -7.48047 24.4141 -7.32422 24.0723 -6.97266 L 21.2207 -4.13086 C 20.8887 -3.79883 20.7227 -3.79883 20.4297 -4.10156 L 19.7852 -4.75586 C 19.4141 -5.13672 19.4141 -5.30273 19.5801 -6.01562 C 19.7852 -6.88477 19.9805 -7.38281 19.3262 -8.04688 C 18.6719 -8.7207 18.0762 -8.57422 17.3438 -8.33008 C 16.5625 -8.06641 16.3281 -8.06641 15.8984 -8.49609 L 14.6094 -9.78516 C 14.1699 -10.2246 14.1309 -10.4395 14.2676 -10.9082 L 15.0293 -13.3984 C 13.3887 -15.2832 11.4941 -15.5566 9.20898 -14.4434 C 9.11133 -14.3945 9.04297 -14.4141 8.96484 -14.4922 Z M 3.96484 1.36719 C 3.52539 0.927734 3.54492 0.537109 4.14062 -0.00976562 L 13.7402 -8.81836 L 15 -7.55859 L 6.17188 2.02148 C 5.625 2.60742 5.24414 2.64648 4.79492 2.19727 Z"/></g><text class="text" style="font-weight:bold;" transform="translate(1289 1953)">Exporting</text><text class="text" transform="translate(1289 1971)">Symbols should be outlined when exporting to ensure the</text><text class="text" transform="translate(1289 1989)">design is preserved when submitting to Xcode.</text><text class="text" transform="translate(263 726)">Small</text><text class="text" transform="translate(263 1156)">Medium</text><text class="text" transform="translate(263 1586)">Large</text></g><g id="Guides"><g id="H-reference" style="fill:#27AAE1;stroke:none;" transform="translate(339 696)"><path d="M 54.9316 0 L 57.666 0 L 30.5664 -70.459 L 28.0762 -70.459 L 0.976562 0 L 3.66211 0 L 12.9395 -24.4629 L 45.7031 -24.4629 Z M 29.1992 -67.0898 L 29.4434 -67.0898 L 44.8242 -26.709 L 13.8184 -26.709 Z"/></g><line id="Baseline-S" style="fill:none;stroke:#27AAE1;opacity:1;stroke-width:0.577;" x1="263" x2="3036" y1="696" y2="696"/><line id="Capline-S" style="fill:none;stroke:#27AAE1;opacity:1;stroke-width:0.577;" x1="263" x2="3036" y1="625.541" y2="625.541"/><g id="H-reference" style="fill:#27AAE1;stroke:none;" transform="translate(339 1126)"><path d="M 54.9316 0 L 57.666 0 L 30.5664 -70.459 L 28.0762 -70.459 L 0.976562 0 L 3.66211 0 L 12.9395 -24.4629 L 45.7031 -24.4629 Z M 29.1992 -67.0898 L 29.4434 -67.0898 L 44.8242 -26.709 L 13.8184 -26.709 Z"/></g><line id="Baseline-M" style="fill:none;stroke:#27AAE1;opacity:1;stroke-width:0.577;" x1="263" x2="3036" y1="1126" y2="1126"/><line id="Capline-M" style="fill:none;stroke:#27AAE1;opacity:1;stroke-width:0.577;" x1="263" x2="3036" y1="1055.54" y2="1055.54"/><g id="H-reference" style="fill:#27AAE1;stroke:none;" transform="translate(339 1556)"><path d="M 54.9316 0 L 57.666 0 L 30.5664 -70.459 L 28.0762 -70.459 L 0.976562 0 L 3.66211 0 L 12.9395 -24.4629 L 45.7031 -24.4629 Z M 29.1992 -67.0898 L 29.4434 -67.0898 L 44.8242 -26.709 L 13.8184 -26.709 Z"/></g><line id="Baseline-L" style="fill:none;stroke:#27AAE1;opacity:1;stroke-width:0.577;" x1="263" x2="3036" y1="1556" y2="1556"/><line id="Capline-L" style="fill:none;stroke:#27AAE1;opacity:1;stroke-width:0.577;" x1="263" x2="3036" y1="1485.54" y2="1485.54"/><rect height="119.336" id="left-margin" style="fill:#00AEEF;stroke:none;opacity:0.4;" width="18.200000" x="1391" y="1030.79"/><rect height="119.336" id="right-margin" style="fill:#00AEEF;stroke:none;opacity:0.4;" width="18.200000" x="1480.3057" y="1030.79"/></g><g id="Symbols"><g id="Ultralight-S" transform="translate(515 696)"><path d="M37.3-65.6h11.2c1.6,0,2.5-0.9,2.5-2.5v-0.6c0-1.6-1-2.5-2.6-2.5h-11.1c-1.6,0-2.5,0.9-2.5,2.5v0.6c0,1.6,0.9,2.5,2.5,2.5ZM22,2.8h42.3c2.9,0,5.1-2.2,5.1-5.1v-42.3c0-1.3-0.6-2.5-1.7-3.4l-17.2-13.1c-0.7-0.6-1.6-0.8-2.5-0.8h-10.7c-0.9,0-1.8,0.3-2.5,0.9l-16.3,13c-1.1,0.9-1.6,2.1-1.6,3.4v42.3c0,2.9,2.2,5.1,5.1,5.1ZM60.4-10.7v-28c0-0.8,0.7-1.5,1.5-1.5h1.6c0.8,0,1.5,0.7,1.5,1.5v28c0,0.8-0.7,1.5-1.5,1.5h-1.6c-0.8,0-1.5-0.7-1.5-1.5Z"/></g><g id="Thin-S" transform="translate(811 696)"><path d="M37.706-66.006h11.286c1.634,0,2.604-0.969,2.604-2.604v-0.721c0-1.634-1.06-2.604-2.695-2.604h-11.195c-1.635,0-2.604,0.969-2.604,2.604v0.721c0,1.635,0.969,2.604,2.604,2.604ZM22.268,3.353h42.671c3.073,0,5.394-2.321,5.394-5.402v-42.714c0-1.412-0.652-2.707-1.83-3.642l-17.381-13.057c-0.734-0.609-1.669-0.826-2.612-0.826h-10.821c-0.943,0-1.886,0.317-2.621,0.926l-16.464,12.957c-1.178,0.943-1.73,2.229-1.73,3.633v42.723c0,3.081,2.321,5.402,5.393,5.402ZM60.668-10.329v-28.527c0-0.947,0.812-1.768,1.768-1.768h1.488c0.955,0,1.768,0.821,1.768,1.768v28.527c0,0.955-0.812,1.768-1.768,1.768h-1.488c-0.955,0-1.768-0.812-1.768-1.768Z"/></g><g id="Light-S" transform="translate(1107 696)"><path d="M38.382-66.682h11.43c1.692,0,2.776-1.084,2.776-2.776v-0.922c0-1.692-1.161-2.776-2.853-2.776h-11.353c-1.692,0-2.776,1.084-2.776,2.776v0.922c0,1.692,1.084,2.776,2.776,2.776ZM22.714,4.273h43.29c3.36,0,5.883-2.522,5.883-5.906v-43.405c0-1.599-0.738-3.052-2.045-4.045l-17.683-12.985c-0.792-0.623-1.784-0.869-2.799-0.869h-11.022c-1.015,0-2.03,0.346-2.822,0.969l-16.737,12.885c-1.307,1.015-1.945,2.445-1.945,4.022v43.428c0,3.383,2.522,5.906,5.883,5.906ZM61.114-9.71v-29.404c0-1.191,0.999-2.214,2.214-2.214h1.301c1.214,0,2.214,1.022,2.214,2.214v29.404c0,1.214-0.999,2.214-2.214,2.214h-1.301c-1.214,0-2.214-0.999-2.214-2.214Z"/></g><g id="Regular-S" transform="translate(1403 696)"><path d="M38.923-67.223h11.545c1.738,0,2.914-1.176,2.914-2.914v-1.083c0-1.738-1.242-2.914-2.98-2.914h-11.48c-1.738,0-2.914,1.176-2.914,2.914v1.083c0,1.738,1.176,2.914,2.914,2.914ZM23.071,5.01h43.785c3.591,0,6.274-2.683,6.274-6.309v-43.957c0-1.749-0.807-3.329-2.218-4.367l-17.925-12.927c-0.838-0.634-1.876-0.904-2.949-0.904h-11.183c-1.073,0-2.145,0.369-2.984,1.004l-16.956,12.827c-1.411,1.073-2.118,2.618-2.118,4.332v43.992c0,3.625,2.683,6.309,6.274,6.309ZM61.471-9.215v-30.106c0-1.387,1.149-2.57,2.57-2.57h1.151c1.422,0,2.57,1.184,2.57,2.57v30.107c0,1.422-1.149,2.571-2.57,2.571h-1.151c-1.422,0-2.57-1.149-2.57-2.571Z"/></g><g id="Medium-S" transform="translate(1699 696)"><path d="M39.498-67.798h11.668c1.787,0,3.061-1.274,3.061-3.061v-1.255c0-1.787-1.327-3.061-3.114-3.061h-11.614c-1.787,0-3.061,1.274-3.061,3.061v1.255c0,1.787,1.274,3.061,3.061,3.061ZM23.45,5.793h44.311c3.835,0,6.69-2.855,6.69-6.737v-44.545c0-1.908-0.881-3.622-2.401-4.709l-18.182-12.866c-0.887-0.647-1.974-0.94-3.108-0.94h-11.355c-1.134,0-2.268,0.394-3.155,1.04l-17.188,12.766c-1.521,1.134-2.301,2.801-2.301,4.663v44.591c0,3.882,2.855,6.737,6.69,6.737ZM61.85-8.689v-30.853c0-1.595,1.308-2.95,2.95-2.95h0.992c1.642,0,2.95,1.355,2.95,2.95v30.852c0,1.642-1.308,2.95-2.95,2.95h-0.992c-1.642,0-2.95-1.308-2.95-2.95Z"/></g><g id="Semibold-S" transform="translate(1995 696)"><path d="M39.904-68.204h11.754c1.822,0,3.165-1.343,3.165-3.165v-1.376c0-1.822-1.388-3.165-3.209-3.165h-11.709c-1.822,0-3.165,1.343-3.165,3.165v1.376c0,1.821,1.343,3.165,3.165,3.165ZM23.717,6.345h44.682c4.008,0,6.983-2.975,6.983-7.039v-44.959c0-2.02-0.932-3.83-2.531-4.951l-18.363-12.823c-0.922-0.655-2.043-0.966-3.22-0.966h-11.475c-1.177,0-2.354,0.411-3.275,1.066l-17.353,12.723c-1.598,1.177-2.431,2.931-2.431,4.896v45.014c0,4.063,2.976,7.039,6.984,7.039ZM62.117-8.318v-31.379c0-1.742,1.42-3.217,3.217-3.217h0.88c1.797,0,3.217,1.476,3.217,3.217v31.379c0,1.797-1.42,3.217-3.217,3.217h-0.88c-1.797,0-3.217-1.42-3.217-3.217Z"/></g><g id="Bold-S" transform="translate(2292 696)"><path d="M40.478-68.778h11.876c1.871,0,3.311-1.441,3.311-3.311v-1.547c0-1.871-1.473-3.311-3.344-3.311h-11.844c-1.87,0-3.311,1.441-3.311,3.311v1.547c0,1.871,1.441,3.312,3.311,3.312ZM24.096,7.128h45.208c4.252,0,7.399-3.147,7.399-7.467v-45.546c0-2.179-1.006-4.123-2.714-5.293l-18.62-12.762c-0.97-0.668-2.141-1.003-3.379-1.003h-11.647c-1.238,0-2.476,0.435-3.447,1.103l-17.585,12.662c-1.709,1.238-2.614,3.114-2.614,5.226v45.614c0,4.32,3.147,7.467,7.399,7.467ZM62.496-7.792v-32.125c0-1.95,1.579-3.596,3.596-3.596h0.721c2.017,0,3.596,1.647,3.596,3.596v32.125c0,2.017-1.579,3.596-3.596,3.596h-0.721c-2.017,0-3.596-1.579-3.596-3.596Z"/></g><g id="Heavy-S" transform="translate(2587 696)"><path d="M41.256-69.556h12.042c1.937,0,3.51-1.573,3.51-3.51v-1.778c0-1.937-1.589-3.51-3.526-3.51h-12.026c-1.937,0-3.51,1.573-3.51,3.51v1.778c0,1.937,1.573,3.51,3.51,3.51ZM24.609,8.187h45.919c4.583,0,7.962-3.379,7.962-8.046v-46.34c0-2.394-1.105-4.52-2.962-5.757l-18.968-12.679c-1.037-0.684-2.273-1.052-3.594-1.052h-11.878c-1.321,0-2.642,0.468-3.678,1.152l-17.899,12.579c-1.858,1.321-2.863,3.363-2.863,5.673v46.424c0,4.668,3.378,8.046,7.962,8.046ZM63.009-7.081v-33.135c0-2.231,1.794-4.109,4.109-4.109h0.506c2.315,0,4.109,1.879,4.109,4.109v33.135c0,2.315-1.794,4.109-4.109,4.109h-0.506c-2.315,0-4.109-1.794-4.109-4.109Z"/></g><g id="Black-S" transform="translate(2883 696)"><path d="M42-70.3h12.2c2,0,3.7-1.7,3.7-3.7v-2c0-2-1.7-3.7-3.7-3.7h-12.2c-2,0-3.7,1.7-3.7,3.7v2c0,2,1.7,3.7,3.7,3.7ZM25.1,9.2h46.6c4.9,0,8.5-3.6,8.5-8.6v-47.1c0-2.6-1.2-4.9-3.2-6.2l-19.3-12.6c-1.1-0.7-2.4-1.1-3.8-1.1h-12.1c-1.4,0-2.8,0.5-3.9,1.2l-18.2,12.5c-2,1.4-3.1,3.6-3.1,6.1v47.2c0,5,3.6,8.6,8.5,8.6ZM63.5-6.4v-34.1c0-2.5,2-4.6,4.6-4.6h0.3c2.6,0,4.6,2.1,4.6,4.6v34.1c0,2.6-2,4.6-4.6,4.6h-0.3c-2.6,0-4.6-2-4.6-4.6Z"/></g><g id="Ultralight-M" transform="translate(503 1126)"><path d="M43.568-72.9h15.326c1.556,0,2.541-1.027,2.541-2.583v-2.059c0-1.556-1.041-2.541-2.598-2.541h-15.269c-1.556,0-2.54,1.027-2.54,2.584v2.059c0,1.556,0.984,2.54,2.541,2.54ZM24.53,12.72h53.901c3.498,0,6.125-2.584,6.125-6.125v-53.685c0-1.598-0.728-3.054-2.041-4.082l-21.84-16.627c-0.871-0.729-1.856-1.014-2.97-1.014h-13.664c-1.071,0-2.099,0.386-3.013,1.114l-20.682,16.527c-1.27,1.028-1.941,2.484-1.941,4.039v53.728c0,3.541,2.627,6.125,6.125,6.125ZM74.541-1.808v-37.92c0-0.969,0.783-1.752,1.752-1.752h1.861c0.925,0,1.752,0.783,1.752,1.752v37.92c0,0.925-0.826,1.752-1.751,1.752h-1.861c-0.968,0-1.752-0.826-1.752-1.752Z"/></g><g id="Thin-M" transform="translate(799 1126)"><path d="M44.069-73.509h15.439c1.615,0,2.672-1.103,2.672-2.715v-2.262c0-1.615-1.108-2.676-2.724-2.676h-15.387c-1.612,0-2.672,1.1-2.672,2.715v2.262c0,1.612,1.06,2.676,2.672,2.676ZM24.806,13.455h54.477c3.69,0,6.455-2.726,6.455-6.463v-54.326c0-1.723-0.79-3.274-2.192-4.346l-22.098-16.597c-0.911-0.742-1.936-1.034-3.099-1.034h-13.848c-1.112,0-2.189,0.396-3.139,1.138l-20.919,16.493c-1.355,1.077-2.092,2.623-2.092,4.294v54.378c0,3.738,2.765,6.463,6.455,6.463ZM74.647-1.609v-38.178c0-1.133,0.908-2.05,2.054-2.05h1.909c1.103,0,2.058,0.917,2.058,2.05v38.178c0,1.099-0.955,2.05-2.058,2.05h-1.909c-1.146,0-2.054-0.951-2.054-2.05Z"/></g><g id="Light-M" transform="translate(1095 1126)"><path d="M44.893-74.513h15.626c1.713,0,2.888-1.228,2.888-2.931v-2.598c0-1.713-1.218-2.898-2.932-2.898h-15.582c-1.703,0-2.888,1.218-2.888,2.931v2.598c0,1.703,1.185,2.898,2.888,2.898ZM25.258,14.665h55.429c4.005,0,6.996-2.958,6.996-7.019v-55.384c0-1.928-0.891-3.636-2.439-4.779l-22.525-16.549c-0.977-0.763-2.067-1.065-3.311-1.065h-14.152c-1.18,0-2.337,0.413-3.346,1.175l-21.309,16.439c-1.495,1.157-2.339,2.851-2.339,4.713v55.45c0,4.061,2.991,7.019,6.996,7.019ZM74.815-1.289v-38.589c0-1.404,1.113-2.541,2.551-2.541h1.994c1.395,0,2.562,1.137,2.562,2.541v38.589c0,1.385-1.167,2.541-2.561,2.541h-1.994c-1.438,0-2.551-1.156-2.551-2.541Z"/></g><g id="Regular-M" transform="translate(1391 1126)"><path d="M45.573-75.343h15.78c1.794,0,3.066-1.331,3.066-3.109v-2.876c0-1.794-1.309-3.082-3.103-3.082h-15.743c-1.778,0-3.066,1.315-3.066,3.109v2.876c0,1.778,1.288,3.082,3.066,3.082ZM25.631,15.665h56.216c4.265,0,7.443-3.151,7.443-7.479v-56.258c0-2.098-0.975-3.934-2.644-5.138l-22.877-16.509c-1.031-0.78-2.176-1.091-3.485-1.091h-14.403c-1.235,0-2.459,0.426-3.517,1.207l-21.632,16.394c-1.61,1.224-2.544,3.04-2.544,5.059v56.337c0,4.328,3.178,7.479,7.443,7.479ZM74.953-1.025v-38.929c0-1.628,1.283-2.946,2.962-2.946h2.065c1.636,0,2.977,1.319,2.977,2.946v38.929c0,1.62-1.341,2.946-2.977,2.946h-2.065c-1.679,0-2.962-1.326-2.962-2.946Z"/></g><g id="Medium-M" transform="translate(1687 1126)"><path d="M46.218-76.129h15.926c1.871,0,3.236-1.429,3.236-3.279v-3.139c0-1.871-1.395-3.256-3.266-3.256h-15.896c-1.85,0-3.236,1.408-3.236,3.279v3.139c0,1.85,1.386,3.256,3.236,3.256ZM25.985,16.613h56.961c4.512,0,7.867-3.333,7.867-7.914v-57.086c0-2.258-1.055-4.217-2.837-5.476l-23.211-16.472c-1.082-0.797-2.278-1.116-3.651-1.116h-14.641c-1.288,0-2.575,0.439-3.679,1.236l-21.938,16.351c-1.719,1.287-2.737,3.218-2.737,5.386v57.176c0,4.581,3.355,7.914,7.867,7.914ZM75.085-0.775v-39.251c0-1.839,1.443-3.33,3.351-3.33h2.131c1.864,0,3.371,1.491,3.371,3.33v39.251c0,1.844-1.507,3.33-3.371,3.33h-2.132c-1.907,0-3.351-1.486-3.351-3.33Z"/></g><g id="Semibold-M" transform="translate(1983 1126)"><path d="M46.751-76.764h16.046c1.932,0,3.375-1.511,3.375-3.418v-3.349c0-1.932-1.468-3.399-3.399-3.399h-16.022c-1.907,0-3.375,1.486-3.375,3.418v3.349c0,1.907,1.468,3.399,3.375,3.399ZM26.285,17.389h57.559c4.718,0,8.222-3.485,8.222-8.279v-57.752c0-2.393-1.121-4.456-2.999-5.762l-23.482-16.437c-1.125-0.811-2.364-1.138-3.789-1.138h-14.832c-1.334,0-2.673,0.452-3.817,1.262l-22.185,16.313c-1.811,1.339-2.899,3.369-2.899,5.662v57.852c0,4.794,3.503,8.279,8.222,8.279ZM75.226-0.531v-39.574c0-2.017,1.578-3.652,3.676-3.652h2.16c2.055,0,3.701,1.635,3.701,3.652v39.574c0,2.031-1.645,3.652-3.701,3.652h-2.16c-2.098,0-3.676-1.621-3.676-3.652Z"/></g><g id="Bold-M" transform="translate(2279 1126)"><path d="M47.396-77.55h16.192c2.008,0,3.544-1.608,3.544-3.587v-3.612c0-2.008-1.554-3.573-3.562-3.573h-16.174c-1.979,0-3.544,1.579-3.544,3.587v3.612c0,1.979,1.565,3.573,3.544,3.573ZM26.639,18.336h58.304c4.965,0,8.645-3.667,8.645-8.714v-58.58c0-2.553-1.2-4.738-3.193-6.101l-23.816-16.4c-1.176-0.827-2.467-1.163-3.955-1.163h-15.07c-1.386,0-2.788,0.465-3.978,1.292l-22.491,16.27c-1.92,1.402-3.093,3.548-3.093,5.989v58.692c0,5.047,3.681,8.714,8.645,8.714ZM75.357-0.281v-39.895c0-2.229,1.738-4.036,4.065-4.036h2.227c2.284,0,4.095,1.807,4.095,4.036v39.895c0,2.255-1.811,4.036-4.095,4.036h-2.227c-2.327,0-4.065-1.781-4.065-4.036Z"/></g><g id="Heavy-M" transform="translate(2575 1126)"><path d="M48.399-78.773h16.419c2.127,0,3.807-1.76,3.807-3.85v-4.021c0-2.127-1.687-3.844-3.815-3.844h-16.411c-2.09,0-3.807,1.723-3.807,3.85v4.021c0,2.09,1.717,3.844,3.807,3.844ZM27.189,19.81h59.463c5.348,0,9.304-3.95,9.304-9.391v-59.868c0-2.803-1.324-5.178-3.494-6.628l-24.335-16.341c-1.256-0.853-2.626-1.201-4.212-1.201h-15.44c-1.469,0-2.968,0.485-4.23,1.338l-22.967,16.204c-2.09,1.5-3.394,3.825-3.394,6.499v59.998c0,5.441,3.956,9.391,9.305,9.391ZM75.561,0.108v-40.396c0-2.558,1.988-4.633,4.67-4.633h2.33c2.639,0,4.707,2.075,4.707,4.633v40.396c0,2.602-2.068,4.633-4.708,4.633h-2.33c-2.682,0-4.67-2.031-4.67-4.633Z"/></g><g id="Black-M" transform="translate(2871 1126)"><path d="M49.152-79.694h16.589c2.217,0,4.005-1.874,4.005-4.048v-4.329c0-2.217-1.788-4.048-4.005-4.048h-16.589c-2.174,0-4.005,1.831-4.005,4.048v4.329c0,2.174,1.831,4.048,4.005,4.048ZM27.6,20.918h60.336c5.636,0,9.798-4.163,9.798-9.898v-60.838c0-2.99-1.417-5.507-3.72-7.024l-24.726-16.298c-1.316-0.872-2.746-1.229-4.405-1.229h-15.718c-1.53,0-3.103,0.5-4.419,1.372l-23.324,16.155c-2.217,1.573-3.62,4.033-3.62,6.88v60.982c0,5.736,4.163,9.899,9.798,9.899ZM75.709,0.393v-40.762c0-2.805,2.175-5.081,5.124-5.081h2.413c2.906,0,5.167,2.275,5.167,5.08v40.762c0,2.862-2.261,5.081-5.167,5.081h-2.413c-2.949,0-5.124-2.218-5.124-5.081Z"/></g><g id="Ultralight-L" transform="translate(487 1556)"><path d="M51.9-82.6h20.8c1.5,0,2.6-1.2,2.6-2.7v-4c0-1.5-1.1-2.6-2.6-2.6h-20.8c-1.5,0-2.6,1.2-2.6,2.7v4c0,1.5,1.1,2.6,2.6,2.6ZM27.9,25.9h69.3c4.3,0,7.5-3.1,7.5-7.5v-68.8c0-2-0.9-3.8-2.5-5l-28-21.3c-1.1-0.9-2.2-1.3-3.6-1.3h-17.6c-1.3,0-2.5,0.5-3.7,1.4l-26.5,21.2c-1.5,1.2-2.4,3-2.4,4.9v68.9c0,4.4,3.2,7.5,7.5,7.5ZM93.3,10v-51.1c0-1.2,0.9-2.1,2.1-2.1h2.2c1.1,0,2.1,0.9,2.1,2.1v51.1c0,1.1-1,2.1-2.1,2.1h-2.2c-1.2,0-2.1-1-2.1-2.1Z"/></g><g id="Thin-L" transform="translate(783 1556)"><path d="M52.43-83.351h20.927c1.579,0,2.742-1.271,2.742-2.842v-4.269c0-1.579-1.163-2.75-2.742-2.75h-20.927c-1.571,0-2.742,1.263-2.742,2.842v4.269c0,1.571,1.171,2.75,2.742,2.75ZM28.137,26.73h70.028c4.482,0,7.816-3.242,7.816-7.824v-69.607c0-2.119-0.963-3.998-2.65-5.245l-28.309-21.292c-1.14-0.916-2.279-1.308-3.727-1.308h-17.829c-1.332,0-2.579,0.5-3.811,1.416l-26.785,21.184c-1.579,1.248-2.55,3.127-2.55,5.137v69.715c0,4.582,3.335,7.824,7.816,7.824ZM93.189,9.953v-50.981c0-1.358,1.019-2.385,2.393-2.385h2.437c1.274,0,2.401,1.027,2.401,2.385v50.981c0,1.266-1.127,2.385-2.401,2.385h-2.437c-1.374,0-2.393-1.119-2.393-2.385Z"/></g><g id="Light-L" transform="translate(1079 1556)"><path d="M53.452-84.801h21.171c1.732,0,3.017-1.408,3.017-3.117v-4.788c0-1.732-1.285-3.04-3.017-3.04h-21.171c-1.709,0-3.017,1.385-3.017,3.117v4.787c0,1.708,1.308,3.04,3.017,3.04ZM28.595,28.332h71.431c4.833,0,8.427-3.517,8.427-8.45v-71.163c0-2.347-1.085-4.379-2.94-5.718l-28.903-21.277c-1.216-0.946-2.432-1.323-3.971-1.323h-18.272c-1.393,0-2.732,0.5-4.024,1.446l-27.334,21.154c-1.732,1.339-2.84,3.371-2.84,5.595v71.286c0,4.933,3.594,8.45,8.427,8.45ZM92.976,9.861v-50.753c0-1.663,1.247-2.934,2.957-2.934h2.895c1.61,0,2.98,1.271,2.98,2.934v50.753c0,1.586-1.371,2.934-2.98,2.934h-2.895c-1.71,0-2.957-1.347-2.957-2.934Z"/></g><g id="Regular-L" transform="translate(1374 1556)"><path d="M54.247-85.928h21.36c1.85,0,3.231-1.515,3.231-3.33v-5.191c0-1.85-1.38-3.265-3.231-3.265h-21.36c-1.815,0-3.23,1.48-3.23,3.331v5.191c0,1.815,1.415,3.266,3.23,3.266ZM28.951,29.578h72.523c5.106,0,8.901-3.73,8.901-8.936v-72.373c0-2.525-1.18-4.676-3.166-6.086l-29.366-21.265c-1.275-0.97-2.55-1.335-4.16-1.335h-18.616c-1.44,0-2.85,0.5-4.19,1.47l-27.761,21.13c-1.85,1.41-3.066,3.56-3.066,5.951v72.508c0,5.206,3.795,8.936,8.901,8.936ZM92.81,9.79v-50.575c0-1.901,1.425-3.361,3.396-3.361h3.251c1.871,0,3.431,1.461,3.431,3.361v50.574c0,1.836-1.561,3.361-3.431,3.361h-3.251c-1.971,0-3.396-1.525-3.396-3.361Z"/></g><g id="Medium-L" transform="translate(1670 1556)"><path d="M55.004-87.001h21.541c1.963,0,3.434-1.617,3.434-3.534v-5.575c0-1.963-1.471-3.48-3.434-3.48h-21.541c-1.917,0-3.434,1.571-3.434,3.534v5.575c0,1.917,1.517,3.48,3.434,3.48ZM29.29,30.764h73.562c5.366,0,9.353-3.934,9.353-9.399v-73.525c0-2.695-1.271-4.958-3.38-6.436l-29.807-21.254c-1.332-0.993-2.663-1.346-4.341-1.346h-18.944c-1.485,0-2.963,0.5-4.349,1.493l-28.168,21.107c-1.963,1.478-3.28,3.741-3.28,6.29v73.672c0,5.465,3.988,9.399,9.353,9.399ZM92.651,9.722v-50.405c0-2.127,1.595-3.768,3.814-3.768h3.59c2.119,0,3.86,1.641,3.86,3.768v50.405c0,2.073-1.741,3.768-3.86,3.768h-3.59c-2.219,0-3.814-1.695-3.814-3.768Z"/></g><g id="Semibold-L" transform="translate(1967 1556)"><path d="M55.647-87.914h21.695c2.059,0,3.607-1.703,3.607-3.707v-5.902c0-2.059-1.547-3.663-3.607-3.663h-21.695c-2.003,0-3.607,1.647-3.607,3.707v5.902c0,2.003,1.603,3.663,3.607,3.663ZM29.578,31.773h74.446c5.586,0,9.737-4.107,9.737-9.793v-74.505c0-2.839-1.347-5.198-3.563-6.734l-30.181-21.244c-1.38-1.012-2.759-1.356-4.495-1.356h-19.222c-1.524,0-3.059,0.5-4.483,1.512l-28.514,21.088c-2.059,1.536-3.463,3.895-3.463,6.578v74.661c0,5.686,4.151,9.793,9.737,9.793ZM92.517,9.664v-50.261c0-2.319,1.739-4.114,4.17-4.114h3.878c2.33,0,4.225,1.795,4.225,4.114v50.261c0,2.275-1.895,4.114-4.225,4.114h-3.878c-2.43,0-4.169-1.839-4.169-4.114Z"/></g><g id="Bold-L" transform="translate(2262 1556)"><path d="M56.404-88.987h21.876c2.172,0,3.81-1.805,3.81-3.91v-6.286c0-2.172-1.638-3.877-3.81-3.877h-21.876c-2.105,0-3.81,1.738-3.81,3.91v6.286c0,2.105,1.705,3.877,3.81,3.877ZM29.917,32.959h75.485c5.846,0,10.189-4.31,10.189-10.257v-75.658c0-3.008-1.438-5.481-3.777-7.084l-30.622-21.233c-1.436-1.034-2.872-1.367-4.676-1.367h-19.55c-1.569,0-3.172,0.5-4.641,1.535l-28.92,21.065c-2.172,1.603-3.677,4.076-3.677,6.917v75.825c0,5.946,4.343,10.256,10.189,10.256ZM92.359,9.597v-50.092c0-2.545,1.908-4.52,4.588-4.52h4.217c2.579,0,4.655,1.976,4.655,4.52v50.092c0,2.512-2.076,4.52-4.655,4.52h-4.217c-2.679,0-4.587-2.008-4.587-4.52Z"/></g><g id="Heavy-L" transform="translate(2558 1556)"><path d="M57.578-90.651h22.156c2.348,0,4.125-1.963,4.125-4.226v-6.881c0-2.348-1.778-4.21-4.125-4.21h-22.156c-2.263,0-4.125,1.878-4.125,4.225v6.881c0,2.263,1.863,4.21,4.126,4.21ZM30.442,34.798h77.097c6.249,0,10.89-4.625,10.89-10.975v-77.444c0-3.271-1.578-5.919-4.11-7.627l-31.305-21.215c-1.524-1.07-3.047-1.385-4.956-1.385h-20.058c-1.639,0-3.347,0.5-4.886,1.569l-29.551,21.031c-2.347,1.708-4.01,4.356-4.01,7.442v77.629c0,6.349,4.641,10.975,10.89,10.975ZM92.114,9.492v-49.829c0-2.895,2.171-5.151,5.236-5.151h4.742c2.964,0,5.32,2.256,5.32,5.151v49.829c0,2.88-2.356,5.151-5.32,5.151h-4.742c-3.065,0-5.236-2.271-5.236-5.151Z"/></g><g id="Black-L" transform="translate(2854 1556)"><path d="M58.6-92.1h22.4c2.5,0,4.4-2.1,4.4-4.5v-7.4c0-2.5-1.9-4.5-4.4-4.5h-22.4c-2.4,0-4.4,2-4.4,4.5v7.4c0,2.4,2,4.5,4.4,4.5ZM30.9,36.4h78.5c6.6,0,11.5-4.9,11.5-11.6v-79c0-3.5-1.7-6.3-4.4-8.1l-31.9-21.2c-1.6-1.1-3.2-1.4-5.2-1.4h-20.5c-1.7,0-3.5,0.5-5.1,1.6l-30.1,21c-2.5,1.8-4.3,4.6-4.3,7.9v79.2c0,6.7,4.9,11.6,11.5,11.6ZM91.9,9.4v-49.6c0-3.2,2.4-5.7,5.8-5.7h5.2c3.3,0,5.9,2.5,5.9,5.7v49.6c0,3.2-2.6,5.7-5.9,5.7h-5.2c-3.4,0-5.8-2.5-5.8-5.7Z"/></g></g></svg>