<?xml version="1.0" encoding="UTF-8" standalone="yes"?>
<!DOCTYPE svg PUBLIC "-//W3C//DTD SVG 1.1//EN" "http://www.w3.org/Graphics/SVG/1.1/DTD/svg11.dtd">
<svg xmlns="http://www.w3.org/2000/svg" xmlns:xlink="http://www.w3.org/1999/xlink" version="1.1" width="3300" height="2200"><!--glyph: "uni100000.medium", point size: 100.000000, font version: "Version 15.0d4e20", template writer version: "2"--><style>
     /*  */
     .text {
       stroke:none;
       fill:black;
       font-family:-apple-system,"SF Pro Display","SF Pro Text",Helvetica,sans-serif;
     }
     /*  */
 </style><g id="Notes"><rect height="2200" id="artboard" style="fill:white;opacity:1" width="3300" x="0" y="0"/><line id="" style="fill:none;stroke:black;opacity:1;stroke-width:0.5;" x1="263" x2="3036" y1="292" y2="292"/><text class="text" style="font-weight:bold;" transform="translate(263 322)">Weight/Scale Variations</text><text class="text" style="text-anchor:middle;" transform="translate(559.711 322)">Ultralight</text><text class="text" style="text-anchor:middle;" transform="translate(856.422 322)">Thin</text><text class="text" style="text-anchor:middle;" transform="translate(1153.13 322)">Light</text><text class="text" style="text-anchor:middle;" transform="translate(1449.84 322)">Regular</text><text class="text" style="text-anchor:middle;" transform="translate(1746.56 322)">Medium</text><text class="text" style="text-anchor:middle;" transform="translate(2043.27 322)">Semibold</text><text class="text" style="text-anchor:middle;" transform="translate(2339.98 322)">Bold</text><text class="text" style="text-anchor:middle;" transform="translate(2636.69 322)">Heavy</text><text class="text" style="text-anchor:middle;" transform="translate(2933.4 322)">Black</text><line id="" style="fill:none;stroke:black;opacity:1;stroke-width:0.5;" x1="263" x2="3036" y1="1903" y2="1903"/><g id="" transform="translate(263 1933)"><path d="M 9.24805 0.830078 C 13.5547 0.830078 17.1387 -2.74414 17.1387 -7.05078 C 17.1387 -11.3574 13.5449 -14.9316 9.23828 -14.9316 C 4.94141 -14.9316 1.36719 -11.3574 1.36719 -7.05078 C 1.36719 -2.74414 4.95117 0.830078 9.24805 0.830078 Z M 9.24805 -0.654297 C 5.70312 -0.654297 2.87109 -3.49609 2.87109 -7.05078 C 2.87109 -10.6055 5.69336 -13.4473 9.23828 -13.4473 C 12.793 -13.4473 15.6348 -10.6055 15.6445 -7.05078 C 15.6543 -3.49609 12.8027 -0.654297 9.24805 -0.654297 Z M 9.22852 -3.42773 C 9.69727 -3.42773 9.9707 -3.74023 9.9707 -4.25781 L 9.9707 -6.31836 L 12.1973 -6.31836 C 12.6953 -6.31836 13.0371 -6.57227 13.0371 -7.04102 C 13.0371 -7.51953 12.7148 -7.7832 12.1973 -7.7832 L 9.9707 -7.7832 L 9.9707 -10.0098 C 9.9707 -10.5273 9.69727 -10.8496 9.22852 -10.8496 C 8.75977 -10.8496 8.50586 -10.5078 8.50586 -10.0098 L 8.50586 -7.7832 L 6.29883 -7.7832 C 5.78125 -7.7832 5.44922 -7.51953 5.44922 -7.04102 C 5.44922 -6.57227 5.80078 -6.31836 6.29883 -6.31836 L 8.50586 -6.31836 L 8.50586 -4.25781 C 8.50586 -3.75977 8.75977 -3.42773 9.22852 -3.42773 Z"/></g><g id="" transform="translate(281.506 1933)"><path d="M 11.709 2.91016 C 17.1484 2.91016 21.6699 -1.60156 21.6699 -7.05078 C 21.6699 -12.4902 17.1387 -17.0117 11.6992 -17.0117 C 6.25 -17.0117 1.74805 -12.4902 1.74805 -7.05078 C 1.74805 -1.60156 6.25977 2.91016 11.709 2.91016 Z M 11.709 1.25 C 7.09961 1.25 3.41797 -2.44141 3.41797 -7.05078 C 3.41797 -11.6504 7.08984 -15.3516 11.6992 -15.3516 C 16.2988 -15.3516 20 -11.6504 20.0098 -7.05078 C 20.0195 -2.44141 16.3086 1.25 11.709 1.25 Z M 11.6797 -2.41211 C 12.207 -2.41211 12.5195 -2.77344 12.5195 -3.33984 L 12.5195 -6.23047 L 15.5762 -6.23047 C 16.123 -6.23047 16.5039 -6.51367 16.5039 -7.03125 C 16.5039 -7.55859 16.1426 -7.86133 15.5762 -7.86133 L 12.5195 -7.86133 L 12.5195 -10.9277 C 12.5195 -11.5039 12.207 -11.8555 11.6797 -11.8555 C 11.1621 -11.8555 10.8789 -11.4844 10.8789 -10.9277 L 10.8789 -7.86133 L 7.83203 -7.86133 C 7.25586 -7.86133 6.89453 -7.55859 6.89453 -7.03125 C 6.89453 -6.51367 7.28516 -6.23047 7.83203 -6.23047 L 10.8789 -6.23047 L 10.8789 -3.33984 C 10.8789 -2.79297 11.1621 -2.41211 11.6797 -2.41211 Z"/></g><g id="" transform="translate(304.914 1933)"><path d="M 14.9707 5.67383 C 21.9336 5.67383 27.6855 -0.078125 27.6855 -7.04102 C 27.6855 -14.0039 21.9238 -19.7559 14.9609 -19.7559 C 7.99805 -19.7559 2.25586 -14.0039 2.25586 -7.04102 C 2.25586 -0.078125 8.00781 5.67383 14.9707 5.67383 Z M 14.9707 3.85742 C 8.92578 3.85742 4.08203 -1.00586 4.08203 -7.04102 C 4.08203 -13.0762 8.91602 -17.9395 14.9609 -17.9395 C 20.9961 -17.9395 25.8594 -13.0762 25.8691 -7.04102 C 25.8789 -1.00586 21.0059 3.85742 14.9707 3.85742 Z M 14.9414 -1.06445 C 15.5176 -1.06445 15.8594 -1.45508 15.8594 -2.06055 L 15.8594 -6.13281 L 20.0977 -6.13281 C 20.6934 -6.13281 21.1133 -6.46484 21.1133 -7.02148 C 21.1133 -7.59766 20.7227 -7.93945 20.0977 -7.93945 L 15.8594 -7.93945 L 15.8594 -12.1875 C 15.8594 -12.8027 15.5176 -13.1934 14.9414 -13.1934 C 14.3848 -13.1934 14.0625 -12.7832 14.0625 -12.1875 L 14.0625 -7.93945 L 9.82422 -7.93945 C 9.20898 -7.93945 8.80859 -7.59766 8.80859 -7.02148 C 8.80859 -6.46484 9.23828 -6.13281 9.82422 -6.13281 L 14.0625 -6.13281 L 14.0625 -2.06055 C 14.0625 -1.47461 14.3848 -1.06445 14.9414 -1.06445 Z"/></g><text class="text" style="font-weight:bold;" transform="translate(263 1953)">Design Variations</text><text class="text" transform="translate(263 1971)">Symbols are supported in up to nine weights and three scales.</text><text class="text" transform="translate(263 1989)">For optimal layout with text and other symbols, vertically align</text><text class="text" transform="translate(263 2007)">symbols with the adjacent text.</text><rect height="14" id="" style="fill:#00AEEF;stroke:none;opacity:0.4;" width="3" x="776" y="1919"/><g id="" transform="translate(779 1933)"><path d="M 10.5273 0 L 12.373 0 L 7.17773 -14.0918 L 5.43945 -14.0918 L 0.244141 0 L 2.08984 0 L 3.50586 -4.0332 L 9.11133 -4.0332 Z M 6.2793 -11.9531 L 6.33789 -11.9531 L 8.59375 -5.52734 L 4.02344 -5.52734 Z"/></g><rect height="14" id="" style="fill:#00AEEF;stroke:none;opacity:0.4;" width="3" x="791.617" y="1919"/><text class="text" style="font-weight:bold;" transform="translate(776 1953)">Side Bearings</text><text class="text" transform="translate(776 1971)">Horizontal padding on the left and right side of each symbol</text><text class="text" transform="translate(776 1989)">can be adjusted by modifying the width of the blue rectangles.</text><text class="text" transform="translate(776 2007)">Modifications are automatically applied proportionally to all</text><text class="text" transform="translate(776 2025)">scales and weights.</text><g id="" transform="translate(1289 1933)"><path d="M 2.96875 2.35352 L 3.80859 3.19336 C 4.84375 4.22852 6.12305 4.15039 7.19727 2.97852 L 16.1621 -6.82617 C 16.5527 -6.74805 16.9629 -6.8457 17.4902 -7.02148 C 18.1738 -7.25586 18.2715 -7.25586 18.3887 -7.13867 C 18.5352 -7.01172 18.4863 -6.89453 18.2422 -6.25 C 17.8809 -5.33203 17.8125 -4.79492 18.5547 -4.02344 L 19.4238 -3.13477 C 20.2734 -2.24609 21.3281 -2.26562 22.2168 -3.14453 L 25.0586 -5.97656 C 25.9473 -6.86523 25.957 -7.92969 25.0781 -8.7793 L 24.1797 -9.64844 C 23.4082 -10.4004 22.8711 -10.3516 21.9629 -9.98047 C 21.3184 -9.72656 21.2012 -9.6875 21.0645 -9.81445 C 20.9375 -9.93164 20.9473 -10.0391 21.1816 -10.7129 C 21.5332 -11.6895 21.5723 -12.2852 20.752 -13.0957 L 19.3359 -14.5117 C 15.1953 -18.6133 11.2305 -18.7402 7.65625 -15.4395 C 7.08008 -14.9023 6.99219 -14.1504 7.53906 -13.6133 L 7.79297 -13.3594 C 8.22266 -12.9297 8.86719 -12.8418 9.41406 -13.1152 C 11.0645 -13.9453 12.2559 -14.0234 13.457 -12.9785 L 13.0273 -11.416 C 12.8516 -10.8008 12.793 -10.3418 12.9199 -9.93164 L 3.18359 -1.04492 C 2.02148 0.0292969 1.93359 1.32812 2.96875 2.35352 Z M 8.96484 -14.4922 C 8.89648 -14.5703 8.86719 -14.6582 8.99414 -14.7559 C 11.709 -17.2852 15.0391 -16.8457 18.3496 -13.5254 L 19.6973 -12.168 C 20.0879 -11.7773 20.0977 -11.582 19.8828 -10.8691 C 19.6582 -10.127 19.502 -9.53125 20.1465 -8.88672 C 20.8105 -8.22266 21.2891 -8.41797 22.207 -8.63281 C 22.9004 -8.79883 23.0664 -8.79883 23.4473 -8.41797 L 24.0918 -7.77344 C 24.4043 -7.48047 24.4141 -7.32422 24.0723 -6.97266 L 21.2207 -4.13086 C 20.8887 -3.79883 20.7227 -3.79883 20.4297 -4.10156 L 19.7852 -4.75586 C 19.4141 -5.13672 19.4141 -5.30273 19.5801 -6.01562 C 19.7852 -6.88477 19.9805 -7.38281 19.3262 -8.04688 C 18.6719 -8.7207 18.0762 -8.57422 17.3438 -8.33008 C 16.5625 -8.06641 16.3281 -8.06641 15.8984 -8.49609 L 14.6094 -9.78516 C 14.1699 -10.2246 14.1309 -10.4395 14.2676 -10.9082 L 15.0293 -13.3984 C 13.3887 -15.2832 11.4941 -15.5566 9.20898 -14.4434 C 9.11133 -14.3945 9.04297 -14.4141 8.96484 -14.4922 Z M 3.96484 1.36719 C 3.52539 0.927734 3.54492 0.537109 4.14062 -0.00976562 L 13.7402 -8.81836 L 15 -7.55859 L 6.17188 2.02148 C 5.625 2.60742 5.24414 2.64648 4.79492 2.19727 Z"/></g><text class="text" style="font-weight:bold;" transform="translate(1289 1953)">Exporting</text><text class="text" transform="translate(1289 1971)">Symbols should be outlined when exporting to ensure the</text><text class="text" transform="translate(1289 1989)">design is preserved when submitting to Xcode.</text><text class="text" transform="translate(263 726)">Small</text><text class="text" transform="translate(263 1156)">Medium</text><text class="text" transform="translate(263 1586)">Large</text></g><g id="Guides"><g id="H-reference" style="fill:#27AAE1;stroke:none;" transform="translate(339 696)"><path d="M 54.9316 0 L 57.666 0 L 30.5664 -70.459 L 28.0762 -70.459 L 0.976562 0 L 3.66211 0 L 12.9395 -24.4629 L 45.7031 -24.4629 Z M 29.1992 -67.0898 L 29.4434 -67.0898 L 44.8242 -26.709 L 13.8184 -26.709 Z"/></g><line id="Baseline-S" style="fill:none;stroke:#27AAE1;opacity:1;stroke-width:0.577;" x1="263" x2="3036" y1="696" y2="696"/><line id="Capline-S" style="fill:none;stroke:#27AAE1;opacity:1;stroke-width:0.577;" x1="263" x2="3036" y1="625.541" y2="625.541"/><g id="H-reference" style="fill:#27AAE1;stroke:none;" transform="translate(339 1126)"><path d="M 54.9316 0 L 57.666 0 L 30.5664 -70.459 L 28.0762 -70.459 L 0.976562 0 L 3.66211 0 L 12.9395 -24.4629 L 45.7031 -24.4629 Z M 29.1992 -67.0898 L 29.4434 -67.0898 L 44.8242 -26.709 L 13.8184 -26.709 Z"/></g><line id="Baseline-M" style="fill:none;stroke:#27AAE1;opacity:1;stroke-width:0.577;" x1="263" x2="3036" y1="1126" y2="1126"/><line id="Capline-M" style="fill:none;stroke:#27AAE1;opacity:1;stroke-width:0.577;" x1="263" x2="3036" y1="1055.54" y2="1055.54"/><g id="H-reference" style="fill:#27AAE1;stroke:none;" transform="translate(339 1556)"><path d="M 54.9316 0 L 57.666 0 L 30.5664 -70.459 L 28.0762 -70.459 L 0.976562 0 L 3.66211 0 L 12.9395 -24.4629 L 45.7031 -24.4629 Z M 29.1992 -67.0898 L 29.4434 -67.0898 L 44.8242 -26.709 L 13.8184 -26.709 Z"/></g><line id="Baseline-L" style="fill:none;stroke:#27AAE1;opacity:1;stroke-width:0.577;" x1="263" x2="3036" y1="1556" y2="1556"/><line id="Capline-L" style="fill:none;stroke:#27AAE1;opacity:1;stroke-width:0.577;" x1="263" x2="3036" y1="1485.54" y2="1485.54"/><rect height="119.336" id="left-margin" style="fill:#00AEEF;stroke:none;opacity:0.4;" width="16.900000" x="1391" y="1030.79"/><rect height="119.336" id="right-margin" style="fill:#00AEEF;stroke:none;opacity:0.4;" width="16.900000" x="1481.6057" y="1030.79"/></g><g id="Symbols"><g id="Ultralight-S" transform="translate(515 696)"><path d="M24.3,2.8h37.7c1.8,0,2.8-1.2,3-3l5-56.5c0.2-1.8-1.2-3-3-3h-47.7c-1.8,0-3.2,1.2-3,3l5,56.5c0.2,1.8,1.2,3,3,3Z"/></g><g id="Thin-S" transform="translate(811 696)"><path d="M24.645,3.18h37.942c1.929,0,3.05-1.304,3.259-3.259l5.078-57.078c0.209-1.955-1.269-3.259-3.233-3.259h-48.158c-1.964,0-3.442,1.304-3.233,3.259l5.086,57.078c0.209,1.955,1.33,3.259,3.259,3.259Z"/></g><g id="Light-S" transform="translate(1107 696)"><path d="M25.221,3.813h38.345c2.145,0,3.468-1.476,3.691-3.691l5.207-58.042c0.223-2.214-1.384-3.691-3.622-3.691h-48.92c-2.237,0-3.845,1.476-3.622,3.691l5.23,58.042c0.223,2.214,1.545,3.691,3.691,3.691Z"/></g><g id="Regular-S" transform="translate(1403 696)"><path d="M25.681,4.319h38.667c2.318,0,3.801-1.614,4.036-4.036l5.311-58.814c0.234-2.422-1.476-4.036-3.932-4.036h-49.53c-2.456,0-4.167,1.614-3.932,4.036l5.345,58.814c0.235,2.421,1.718,4.036,4.036,4.036Z"/></g><g id="Medium-S" transform="translate(1699 696)"><path d="M26.17,4.858h39.009c2.501,0,4.156-1.761,4.403-4.403l5.421-59.633c0.247-2.642-1.574-4.403-4.263-4.403h-50.178c-2.689,0-4.509,1.761-4.263,4.403l5.468,59.633c0.247,2.642,1.901,4.403,4.403,4.403Z"/></g><g id="Semibold-S" transform="translate(1995 696)"><path d="M26.516,5.237h39.251c2.631,0,4.407-1.865,4.662-4.662l5.498-60.212c0.255-2.797-1.643-4.662-4.496-4.662h-50.636c-2.852,0-4.751,1.865-4.496,4.662l5.554,60.211c0.255,2.797,2.031,4.662,4.662,4.662Z"/></g><g id="Bold-S" transform="translate(2292 696)"><path d="M27.005,5.776h39.594c2.814,0,4.761-2.012,5.029-5.029l5.609-61.031c0.268-3.017-1.741-5.029-4.826-5.029h-51.284c-3.085,0-5.093,2.012-4.826,5.029l5.676,61.031c0.268,3.017,2.214,5.029,5.029,5.029Z"/></g><g id="Heavy-S" transform="translate(2587 696)"><path d="M27.667,6.504h40.057c3.063,0,5.241-2.21,5.525-5.525l5.758-62.14c0.284-3.315-1.873-5.525-5.273-5.525h-52.161c-3.399,0-5.557,2.21-5.273,5.525l5.842,62.14c0.284,3.315,2.463,5.525,5.525,5.525Z"/></g><g id="Black-S" transform="translate(2883 696)"><path d="M28.3,7.2h40.5c3.3,0,5.7-2.4,6-6l5.9-63.2c0.3-3.6-2-6-5.7-6h-53c-3.7,0-6,2.4-5.7,6l6,63.2c0.3,3.6,2.7,6,6,6Z"/></g><g id="Ultralight-M" transform="translate(503 1126)"><path d="M27.603,13.154h47.713c2.313,0,3.611-1.498,3.854-3.768l6.288-71.45c0.243-2.269-1.499-3.811-3.811-3.811h-60.331c-2.269,0-4.011,1.542-3.768,3.811l6.288,71.45c0.243,2.269,1.498,3.768,3.768,3.768Z"/></g><g id="Thin-M" transform="translate(799 1126)"><path d="M27.94,13.747h48.181c2.494,0,3.95-1.645,4.209-4.134l6.416-72.435c0.259-2.489-1.595-4.174-4.14-4.174h-61.121c-2.502,0-4.352,1.684-4.093,4.174l6.424,72.435c0.259,2.489,1.676,4.134,4.123,4.134Z"/></g><g id="Light-M" transform="translate(1095 1126)"><path d="M28.493,14.726h48.956c2.794,0,4.507-1.887,4.795-4.739l6.626-74.065c0.287-2.852-1.752-4.772-4.681-4.772h-62.427c-2.886,0-4.915,1.92-4.627,4.772l6.649,74.064c0.287,2.852,1.968,4.739,4.708,4.739Z"/></g><g id="Regular-M" transform="translate(1391 1126)"><path d="M28.949,15.536h49.597c3.041,0,4.968-2.087,5.278-5.239l6.8-75.411c0.31-3.152-1.881-5.266-5.128-5.266h-63.506c-3.203,0-5.379,2.114-5.069,5.266l6.836,75.411c0.31,3.152,2.21,5.239,5.192,5.239Z"/></g><g id="Medium-M" transform="translate(1687 1126)"><path d="M29.382,16.302h50.204c3.275,0,5.405-2.276,5.736-5.712l6.965-76.686c0.332-3.436-2.004-5.735-5.551-5.735h-64.528c-3.504,0-5.819,2.299-5.487,5.735l7.012,76.686c0.332,3.436,2.439,5.712,5.65,5.712Z"/></g><g id="Semibold-M" transform="translate(1983 1126)"><path d="M29.752,16.918h50.681c3.465,0,5.761-2.43,6.11-6.097l7.096-77.701c0.349-3.667-2.104-6.116-5.895-6.116h-65.341c-3.748,0-6.177,2.449-5.828,6.116l7.153,77.701c0.349,3.667,2.626,6.097,6.024,6.097Z"/></g><g id="Bold-M" transform="translate(2279 1126)"><path d="M30.185,17.685h51.288c3.699,0,6.198-2.619,6.568-6.57l7.261-78.976c0.37-3.951-2.227-6.584-6.319-6.584h-66.363c-4.049,0-6.617,2.633-6.247,6.584l7.33,78.976c0.37,3.951,2.855,6.57,6.482,6.57Z"/></g><g id="Heavy-M" transform="translate(2575 1126)"><path d="M30.857,18.877h52.231c4.064,0,6.877-2.914,7.281-7.307l7.517-80.96c0.404-4.393-2.418-7.312-6.978-7.312h-67.953c-4.516,0-7.302,2.92-6.897,7.312l7.604,80.96c0.404,4.393,3.211,7.307,7.195,7.307Z"/></g><g id="Black-M" transform="translate(2871 1126)"><path d="M31.36,19.776h52.945c4.338,0,7.387-3.136,7.817-7.861l7.71-82.456c0.43-4.725-2.562-7.86-7.473-7.86h-69.153c-4.868,0-7.817,3.135-7.387,7.86l7.811,82.456c0.43,4.725,3.48,7.861,7.731,7.861Z"/></g><g id="Ultralight-L" transform="translate(487 1556)"><path d="M32,26.9h61c3,0,4.7-1.9,5-4.8l8-91.3c0.3-2.9-1.9-4.9-4.9-4.9h-77.1c-2.9,0-5.1,2-4.8,4.9l8,91.3c0.3,2.9,1.9,4.8,4.8,4.8Z"/></g><g id="Thin-L" transform="translate(783 1556)"><path d="M32.269,27.651h61.664c3.214,0,5.088-2.074,5.411-5.235l8.166-92.613c0.324-3.161-2.011-5.327-5.288-5.327h-78.16c-3.177,0-5.503,2.166-5.18,5.327l8.174,92.613c0.324,3.161,2.106,5.235,5.211,5.235Z"/></g><g id="Light-L" transform="translate(1079 1556)"><path d="M32.788,29.101h62.946c3.626,0,5.835-2.41,6.205-6.074l8.486-95.145c0.369-3.664-2.224-6.151-6.035-6.151h-80.204c-3.711,0-6.281,2.486-5.912,6.151l8.51,95.145c0.369,3.664,2.502,6.074,6.005,6.074Z"/></g><g id="Regular-L" transform="translate(1374 1556)"><path d="M33.191,30.228h63.942c3.946,0,6.416-2.671,6.821-6.727l8.736-97.115c0.405-4.056-2.39-6.792-6.616-6.792h-81.794c-4.126,0-6.886,2.736-6.481,6.792l8.771,97.115c0.405,4.056,2.811,6.727,6.622,6.727Z"/></g><g id="Medium-L" transform="translate(1670 1556)"><path d="M33.575,31.301h64.892c4.251,0,6.97-2.919,7.409-7.348l8.973-98.99c0.439-4.429-2.549-7.402-7.17-7.402h-83.308c-4.521,0-7.463,2.973-7.024,7.402l9.019,98.99c0.439,4.429,3.104,7.348,7.209,7.348Z"/></g><g id="Semibold-L" transform="translate(1967 1556)"><path d="M33.902,32.214h65.698c4.51,0,7.441-3.131,7.908-7.876l9.175-100.585c0.468-4.746-2.683-7.92-7.641-7.92h-84.595c-4.858,0-7.953,3.175-7.485,7.92l9.231,100.585c0.468,4.746,3.354,7.876,7.708,7.876Z"/></g><g id="Bold-L" transform="translate(2262 1556)"><path d="M34.286,33.287h66.647c4.815,0,7.994-3.379,8.496-8.498l9.412-102.461c0.502-5.119-2.841-8.531-8.194-8.531h-86.109c-5.253,0-8.529,3.412-8.027,8.531l9.479,102.46c0.502,5.119,3.648,8.498,8.296,8.498Z"/></g><g id="Heavy-L" transform="translate(2558 1556)"><path d="M34.881,34.951h68.119c5.288,0,8.853-3.764,9.407-9.461l9.78-105.368c0.554-5.697-3.086-9.476-9.053-9.476h-88.456c-5.866,0-9.422,3.78-8.868,9.476l9.864,105.368c0.554,5.697,4.103,9.461,9.207,9.461Z"/></g><g id="Black-L" transform="translate(2854 1556)"><path d="M35.4,36.4h69.4c5.7,0,9.6-4.1,10.2-10.3l10.1-107.9c0.6-6.2-3.3-10.3-9.8-10.3h-90.5c-6.4,0-10.2,4.1-9.6,10.3l10.2,107.9c0.6,6.2,4.5,10.3,10,10.3Z"/></g></g></svg>