<?xml version="1.0" encoding="UTF-8" standalone="yes"?>
<!DOCTYPE svg PUBLIC "-//W3C//DTD SVG 1.1//EN" "http://www.w3.org/Graphics/SVG/1.1/DTD/svg11.dtd">
<svg xmlns="http://www.w3.org/2000/svg" xmlns:xlink="http://www.w3.org/1999/xlink" version="1.1" width="3300" height="2200"><!--glyph: "uni100000.medium", point size: 100.000000, font version: "Version 15.0d4e20", template writer version: "2"--><style>
     /*  */
     .text {
       stroke:none;
       fill:black;
       font-family:-apple-system,"SF Pro Display","SF Pro Text",Helvetica,sans-serif;
     }
     /*  */
 </style><g id="Notes"><rect height="2200" id="artboard" style="fill:white;opacity:1" width="3300" x="0" y="0"/><line id="" style="fill:none;stroke:black;opacity:1;stroke-width:0.5;" x1="263" x2="3036" y1="292" y2="292"/><text class="text" style="font-weight:bold;" transform="translate(263 322)">Weight/Scale Variations</text><text class="text" style="text-anchor:middle;" transform="translate(559.711 322)">Ultralight</text><text class="text" style="text-anchor:middle;" transform="translate(856.422 322)">Thin</text><text class="text" style="text-anchor:middle;" transform="translate(1153.13 322)">Light</text><text class="text" style="text-anchor:middle;" transform="translate(1449.84 322)">Regular</text><text class="text" style="text-anchor:middle;" transform="translate(1746.56 322)">Medium</text><text class="text" style="text-anchor:middle;" transform="translate(2043.27 322)">Semibold</text><text class="text" style="text-anchor:middle;" transform="translate(2339.98 322)">Bold</text><text class="text" style="text-anchor:middle;" transform="translate(2636.69 322)">Heavy</text><text class="text" style="text-anchor:middle;" transform="translate(2933.4 322)">Black</text><line id="" style="fill:none;stroke:black;opacity:1;stroke-width:0.5;" x1="263" x2="3036" y1="1903" y2="1903"/><g id="" transform="translate(263 1933)"><path d="M 9.24805 0.830078 C 13.5547 0.830078 17.1387 -2.74414 17.1387 -7.05078 C 17.1387 -11.3574 13.5449 -14.9316 9.23828 -14.9316 C 4.94141 -14.9316 1.36719 -11.3574 1.36719 -7.05078 C 1.36719 -2.74414 4.95117 0.830078 9.24805 0.830078 Z M 9.24805 -0.654297 C 5.70312 -0.654297 2.87109 -3.49609 2.87109 -7.05078 C 2.87109 -10.6055 5.69336 -13.4473 9.23828 -13.4473 C 12.793 -13.4473 15.6348 -10.6055 15.6445 -7.05078 C 15.6543 -3.49609 12.8027 -0.654297 9.24805 -0.654297 Z M 9.22852 -3.42773 C 9.69727 -3.42773 9.9707 -3.74023 9.9707 -4.25781 L 9.9707 -6.31836 L 12.1973 -6.31836 C 12.6953 -6.31836 13.0371 -6.57227 13.0371 -7.04102 C 13.0371 -7.51953 12.7148 -7.7832 12.1973 -7.7832 L 9.9707 -7.7832 L 9.9707 -10.0098 C 9.9707 -10.5273 9.69727 -10.8496 9.22852 -10.8496 C 8.75977 -10.8496 8.50586 -10.5078 8.50586 -10.0098 L 8.50586 -7.7832 L 6.29883 -7.7832 C 5.78125 -7.7832 5.44922 -7.51953 5.44922 -7.04102 C 5.44922 -6.57227 5.80078 -6.31836 6.29883 -6.31836 L 8.50586 -6.31836 L 8.50586 -4.25781 C 8.50586 -3.75977 8.75977 -3.42773 9.22852 -3.42773 Z"/></g><g id="" transform="translate(281.506 1933)"><path d="M 11.709 2.91016 C 17.1484 2.91016 21.6699 -1.60156 21.6699 -7.05078 C 21.6699 -12.4902 17.1387 -17.0117 11.6992 -17.0117 C 6.25 -17.0117 1.74805 -12.4902 1.74805 -7.05078 C 1.74805 -1.60156 6.25977 2.91016 11.709 2.91016 Z M 11.709 1.25 C 7.09961 1.25 3.41797 -2.44141 3.41797 -7.05078 C 3.41797 -11.6504 7.08984 -15.3516 11.6992 -15.3516 C 16.2988 -15.3516 20 -11.6504 20.0098 -7.05078 C 20.0195 -2.44141 16.3086 1.25 11.709 1.25 Z M 11.6797 -2.41211 C 12.207 -2.41211 12.5195 -2.77344 12.5195 -3.33984 L 12.5195 -6.23047 L 15.5762 -6.23047 C 16.123 -6.23047 16.5039 -6.51367 16.5039 -7.03125 C 16.5039 -7.55859 16.1426 -7.86133 15.5762 -7.86133 L 12.5195 -7.86133 L 12.5195 -10.9277 C 12.5195 -11.5039 12.207 -11.8555 11.6797 -11.8555 C 11.1621 -11.8555 10.8789 -11.4844 10.8789 -10.9277 L 10.8789 -7.86133 L 7.83203 -7.86133 C 7.25586 -7.86133 6.89453 -7.55859 6.89453 -7.03125 C 6.89453 -6.51367 7.28516 -6.23047 7.83203 -6.23047 L 10.8789 -6.23047 L 10.8789 -3.33984 C 10.8789 -2.79297 11.1621 -2.41211 11.6797 -2.41211 Z"/></g><g id="" transform="translate(304.914 1933)"><path d="M 14.9707 5.67383 C 21.9336 5.67383 27.6855 -0.078125 27.6855 -7.04102 C 27.6855 -14.0039 21.9238 -19.7559 14.9609 -19.7559 C 7.99805 -19.7559 2.25586 -14.0039 2.25586 -7.04102 C 2.25586 -0.078125 8.00781 5.67383 14.9707 5.67383 Z M 14.9707 3.85742 C 8.92578 3.85742 4.08203 -1.00586 4.08203 -7.04102 C 4.08203 -13.0762 8.91602 -17.9395 14.9609 -17.9395 C 20.9961 -17.9395 25.8594 -13.0762 25.8691 -7.04102 C 25.8789 -1.00586 21.0059 3.85742 14.9707 3.85742 Z M 14.9414 -1.06445 C 15.5176 -1.06445 15.8594 -1.45508 15.8594 -2.06055 L 15.8594 -6.13281 L 20.0977 -6.13281 C 20.6934 -6.13281 21.1133 -6.46484 21.1133 -7.02148 C 21.1133 -7.59766 20.7227 -7.93945 20.0977 -7.93945 L 15.8594 -7.93945 L 15.8594 -12.1875 C 15.8594 -12.8027 15.5176 -13.1934 14.9414 -13.1934 C 14.3848 -13.1934 14.0625 -12.7832 14.0625 -12.1875 L 14.0625 -7.93945 L 9.82422 -7.93945 C 9.20898 -7.93945 8.80859 -7.59766 8.80859 -7.02148 C 8.80859 -6.46484 9.23828 -6.13281 9.82422 -6.13281 L 14.0625 -6.13281 L 14.0625 -2.06055 C 14.0625 -1.47461 14.3848 -1.06445 14.9414 -1.06445 Z"/></g><text class="text" style="font-weight:bold;" transform="translate(263 1953)">Design Variations</text><text class="text" transform="translate(263 1971)">Symbols are supported in up to nine weights and three scales.</text><text class="text" transform="translate(263 1989)">For optimal layout with text and other symbols, vertically align</text><text class="text" transform="translate(263 2007)">symbols with the adjacent text.</text><rect height="14" id="" style="fill:#00AEEF;stroke:none;opacity:0.4;" width="3" x="776" y="1919"/><g id="" transform="translate(779 1933)"><path d="M 10.5273 0 L 12.373 0 L 7.17773 -14.0918 L 5.43945 -14.0918 L 0.244141 0 L 2.08984 0 L 3.50586 -4.0332 L 9.11133 -4.0332 Z M 6.2793 -11.9531 L 6.33789 -11.9531 L 8.59375 -5.52734 L 4.02344 -5.52734 Z"/></g><rect height="14" id="" style="fill:#00AEEF;stroke:none;opacity:0.4;" width="3" x="791.617" y="1919"/><text class="text" style="font-weight:bold;" transform="translate(776 1953)">Side Bearings</text><text class="text" transform="translate(776 1971)">Horizontal padding on the left and right side of each symbol</text><text class="text" transform="translate(776 1989)">can be adjusted by modifying the width of the blue rectangles.</text><text class="text" transform="translate(776 2007)">Modifications are automatically applied proportionally to all</text><text class="text" transform="translate(776 2025)">scales and weights.</text><g id="" transform="translate(1289 1933)"><path d="M 2.96875 2.35352 L 3.80859 3.19336 C 4.84375 4.22852 6.12305 4.15039 7.19727 2.97852 L 16.1621 -6.82617 C 16.5527 -6.74805 16.9629 -6.8457 17.4902 -7.02148 C 18.1738 -7.25586 18.2715 -7.25586 18.3887 -7.13867 C 18.5352 -7.01172 18.4863 -6.89453 18.2422 -6.25 C 17.8809 -5.33203 17.8125 -4.79492 18.5547 -4.02344 L 19.4238 -3.13477 C 20.2734 -2.24609 21.3281 -2.26562 22.2168 -3.14453 L 25.0586 -5.97656 C 25.9473 -6.86523 25.957 -7.92969 25.0781 -8.7793 L 24.1797 -9.64844 C 23.4082 -10.4004 22.8711 -10.3516 21.9629 -9.98047 C 21.3184 -9.72656 21.2012 -9.6875 21.0645 -9.81445 C 20.9375 -9.93164 20.9473 -10.0391 21.1816 -10.7129 C 21.5332 -11.6895 21.5723 -12.2852 20.752 -13.0957 L 19.3359 -14.5117 C 15.1953 -18.6133 11.2305 -18.7402 7.65625 -15.4395 C 7.08008 -14.9023 6.99219 -14.1504 7.53906 -13.6133 L 7.79297 -13.3594 C 8.22266 -12.9297 8.86719 -12.8418 9.41406 -13.1152 C 11.0645 -13.9453 12.2559 -14.0234 13.457 -12.9785 L 13.0273 -11.416 C 12.8516 -10.8008 12.793 -10.3418 12.9199 -9.93164 L 3.18359 -1.04492 C 2.02148 0.0292969 1.93359 1.32812 2.96875 2.35352 Z M 8.96484 -14.4922 C 8.89648 -14.5703 8.86719 -14.6582 8.99414 -14.7559 C 11.709 -17.2852 15.0391 -16.8457 18.3496 -13.5254 L 19.6973 -12.168 C 20.0879 -11.7773 20.0977 -11.582 19.8828 -10.8691 C 19.6582 -10.127 19.502 -9.53125 20.1465 -8.88672 C 20.8105 -8.22266 21.2891 -8.41797 22.207 -8.63281 C 22.9004 -8.79883 23.0664 -8.79883 23.4473 -8.41797 L 24.0918 -7.77344 C 24.4043 -7.48047 24.4141 -7.32422 24.0723 -6.97266 L 21.2207 -4.13086 C 20.8887 -3.79883 20.7227 -3.79883 20.4297 -4.10156 L 19.7852 -4.75586 C 19.4141 -5.13672 19.4141 -5.30273 19.5801 -6.01562 C 19.7852 -6.88477 19.9805 -7.38281 19.3262 -8.04688 C 18.6719 -8.7207 18.0762 -8.57422 17.3438 -8.33008 C 16.5625 -8.06641 16.3281 -8.06641 15.8984 -8.49609 L 14.6094 -9.78516 C 14.1699 -10.2246 14.1309 -10.4395 14.2676 -10.9082 L 15.0293 -13.3984 C 13.3887 -15.2832 11.4941 -15.5566 9.20898 -14.4434 C 9.11133 -14.3945 9.04297 -14.4141 8.96484 -14.4922 Z M 3.96484 1.36719 C 3.52539 0.927734 3.54492 0.537109 4.14062 -0.00976562 L 13.7402 -8.81836 L 15 -7.55859 L 6.17188 2.02148 C 5.625 2.60742 5.24414 2.64648 4.79492 2.19727 Z"/></g><text class="text" style="font-weight:bold;" transform="translate(1289 1953)">Exporting</text><text class="text" transform="translate(1289 1971)">Symbols should be outlined when exporting to ensure the</text><text class="text" transform="translate(1289 1989)">design is preserved when submitting to Xcode.</text><text class="text" transform="translate(263 726)">Small</text><text class="text" transform="translate(263 1156)">Medium</text><text class="text" transform="translate(263 1586)">Large</text></g><g id="Guides"><g id="H-reference" style="fill:#27AAE1;stroke:none;" transform="translate(339 696)"><path d="M 54.9316 0 L 57.666 0 L 30.5664 -70.459 L 28.0762 -70.459 L 0.976562 0 L 3.66211 0 L 12.9395 -24.4629 L 45.7031 -24.4629 Z M 29.1992 -67.0898 L 29.4434 -67.0898 L 44.8242 -26.709 L 13.8184 -26.709 Z"/></g><line id="Baseline-S" style="fill:none;stroke:#27AAE1;opacity:1;stroke-width:0.577;" x1="263" x2="3036" y1="696" y2="696"/><line id="Capline-S" style="fill:none;stroke:#27AAE1;opacity:1;stroke-width:0.577;" x1="263" x2="3036" y1="625.541" y2="625.541"/><g id="H-reference" style="fill:#27AAE1;stroke:none;" transform="translate(339 1126)"><path d="M 54.9316 0 L 57.666 0 L 30.5664 -70.459 L 28.0762 -70.459 L 0.976562 0 L 3.66211 0 L 12.9395 -24.4629 L 45.7031 -24.4629 Z M 29.1992 -67.0898 L 29.4434 -67.0898 L 44.8242 -26.709 L 13.8184 -26.709 Z"/></g><line id="Baseline-M" style="fill:none;stroke:#27AAE1;opacity:1;stroke-width:0.577;" x1="263" x2="3036" y1="1126" y2="1126"/><line id="Capline-M" style="fill:none;stroke:#27AAE1;opacity:1;stroke-width:0.577;" x1="263" x2="3036" y1="1055.54" y2="1055.54"/><g id="H-reference" style="fill:#27AAE1;stroke:none;" transform="translate(339 1556)"><path d="M 54.9316 0 L 57.666 0 L 30.5664 -70.459 L 28.0762 -70.459 L 0.976562 0 L 3.66211 0 L 12.9395 -24.4629 L 45.7031 -24.4629 Z M 29.1992 -67.0898 L 29.4434 -67.0898 L 44.8242 -26.709 L 13.8184 -26.709 Z"/></g><line id="Baseline-L" style="fill:none;stroke:#27AAE1;opacity:1;stroke-width:0.577;" x1="263" x2="3036" y1="1556" y2="1556"/><line id="Capline-L" style="fill:none;stroke:#27AAE1;opacity:1;stroke-width:0.577;" x1="263" x2="3036" y1="1485.54" y2="1485.54"/><rect height="119.336" id="left-margin" style="fill:#00AEEF;stroke:none;opacity:0.4;" width="11.000000" x="1391" y="1030.79"/><rect height="119.336" id="right-margin" style="fill:#00AEEF;stroke:none;opacity:0.4;" width="9.300000" x="1489.2057" y="1030.79"/></g><g id="Symbols"><g id="Ultralight-S" transform="translate(515 696)"><path d="M72.8-47.2h-11.1v-9.5c0-1.8-1.2-3-3-3h-42.6c-1.8,0-3,1.2-3,3v56.5c0,1.8,1.2,3,3,3h42.6c1.8,0,3-1.2,3-3v-13.3h11.1c1.8,0,3-1.2,3-3v-27.7c0-1.8-1.2-3-3-3ZM71.6-19.6c0,0.8-0.6,1.4-1.4,1.4h-8.5v-24.8h8.5c0.8,0,1.4,0.6,1.4,1.4Z"/></g><g id="Thin-S" transform="translate(811 696)"><path d="M73.81-47.908h-11.161v-9.509c0-1.981-1.321-3.302-3.294-3.302h-43.23c-1.973,0-3.293,1.321-3.293,3.302v57.467c0,1.981,1.321,3.302,3.294,3.302h43.23c1.973,0,3.293-1.321,3.293-3.302v-13.404h11.161c1.973,0,3.294-1.321,3.294-3.302v-27.95c0-1.981-1.321-3.302-3.293-3.302ZM72.463-19.971c0,0.809-0.617,1.426-1.426,1.426h-8.388v-24.705h8.388c0.809,0,1.426,0.609,1.426,1.435Z"/></g><g id="Light-S" transform="translate(1107 696)"><path d="M75.493-49.088h-11.261v-9.523c0-2.283-1.522-3.806-3.783-3.806h-44.28c-2.261,0-3.783,1.522-3.783,3.806v59.078c0,2.283,1.522,3.806,3.783,3.806h44.281c2.261,0,3.783-1.522,3.783-3.806v-13.576h11.261c2.26,0,3.783-1.522,3.783-3.806v-28.368c0-2.283-1.522-3.806-3.783-3.806ZM73.902-20.59c0,0.823-0.646,1.469-1.469,1.469h-8.201v-24.547h8.201c0.823,0,1.469,0.623,1.469,1.492Z"/></g><g id="Regular-S" transform="translate(1403 696)"><path d="M76.84-50.032h-11.342v-9.535c0-2.525-1.683-4.209-4.174-4.209h-45.121c-2.491,0-4.174,1.683-4.174,4.209v60.368c0,2.525,1.683,4.209,4.174,4.209h45.121c2.491,0,4.174-1.684,4.174-4.209v-13.714h11.342c2.491,0,4.174-1.684,4.174-4.209v-28.701c0-2.525-1.683-4.209-4.174-4.209ZM75.053-21.085c0,0.835-0.669,1.504-1.504,1.504h-8.051v-24.42h8.051c0.835,0,1.504,0.634,1.504,1.538Z"/></g><g id="Medium-S" transform="translate(1699 696)"><path d="M78.271-51.035h-11.427v-9.547c0-2.782-1.855-4.637-4.59-4.637h-46.014c-2.735,0-4.59,1.855-4.59,4.637v61.737c0,2.782,1.855,4.637,4.59,4.637h46.014c2.735,0,4.59-1.855,4.59-4.637v-13.861h11.427c2.735,0,4.59-1.855,4.59-4.637v-29.056c0-2.782-1.855-4.637-4.59-4.637ZM76.276-21.611c0,0.847-0.694,1.54-1.54,1.54h-7.892v-24.286h7.892c0.847,0,1.54,0.647,1.54,1.587Z"/></g><g id="Semibold-S" transform="translate(1995 696)"><path d="M79.281-51.742h-11.488v-9.555c0-2.963-1.976-4.939-4.883-4.939h-46.644c-2.908,0-4.883,1.976-4.883,4.939v62.704c0,2.963,1.976,4.939,4.884,4.939h46.644c2.908,0,4.883-1.975,4.883-4.939v-13.965h11.488c2.908,0,4.883-1.975,4.883-4.939v-29.307c0-2.963-1.975-4.939-4.883-4.939ZM77.14-21.982c0,0.855-0.711,1.566-1.566,1.566h-7.78v-24.191h7.78c0.855,0,1.566,0.655,1.566,1.622Z"/></g><g id="Bold-S" transform="translate(2292 696)"><path d="M80.712-52.745h-11.573v-9.568c0-3.22-2.147-5.367-5.299-5.367h-47.537c-3.153,0-5.299,2.147-5.299,5.367v64.074c0,3.22,2.147,5.367,5.299,5.367h47.537c3.153,0,5.299-2.147,5.299-5.367v-14.112h11.573c3.152,0,5.299-2.147,5.299-5.367v-29.661c0-3.22-2.147-5.367-5.299-5.367ZM78.363-22.508c0,0.868-0.735,1.603-1.603,1.603h-7.621v-24.056h7.621c0.868,0,1.603,0.668,1.603,1.671Z"/></g><g id="Heavy-S" transform="translate(2587 696)"><path d="M82.648-54.102h-11.689v-9.584c0-3.568-2.378-5.946-5.862-5.946h-48.745c-3.483,0-5.862,2.378-5.862,5.946v65.927c0,3.568,2.378,5.946,5.862,5.946h48.745c3.484,0,5.862-2.379,5.862-5.946v-14.31h11.689c3.484,0,5.862-2.378,5.862-5.946v-30.141c0-3.568-2.378-5.946-5.862-5.946ZM80.017-23.219c0,0.884-0.768,1.652-1.653,1.652h-7.406v-23.874h7.406c0.884,0,1.653,0.684,1.653,1.737Z"/></g><g id="Black-S" transform="translate(2883 696)"><path d="M84.5-55.4h-11.8v-9.6c0-3.9-2.6-6.5-6.4-6.5h-49.9c-3.8,0-6.4,2.6-6.4,6.5v67.7c0,3.9,2.6,6.5,6.4,6.5h49.9c3.8,0,6.4-2.6,6.4-6.5v-14.5h11.8c3.8,0,6.4-2.6,6.4-6.5v-30.6c0-3.9-2.6-6.5-6.4-6.5ZM81.6-23.9c0,0.9-0.8,1.7-1.7,1.7h-7.2v-23.7h7.2c0.9,0,1.7,0.7,1.7,1.8Z"/></g><g id="Ultralight-M" transform="translate(503 1126)"><path d="M87.955-49.978h-13.98v-11.994c0-2.226-1.498-3.767-3.81-3.767h-53.765c-2.226,0-3.767,1.541-3.767,3.767v71.355c0,2.226,1.541,3.767,3.767,3.767h53.765c2.312,0,3.81-1.541,3.81-3.767v-16.823h13.98c2.269,0,3.81-1.498,3.81-3.767v-35.004c0-2.226-1.541-3.767-3.81-3.767ZM86.414-15.119c0,0.972-0.728,1.743-1.743,1.743h-10.696v-31.295h10.696c1.015,0,1.743,0.772,1.743,1.743Z"/></g><g id="Thin-M" transform="translate(799 1126)"><path d="M89.175-50.891h-14.047v-11.991c0-2.465-1.659-4.163-4.19-4.163h-54.554c-2.46,0-4.154,1.698-4.154,4.163v72.565c0,2.465,1.694,4.163,4.154,4.163h54.554c2.531,0,4.19-1.698,4.19-4.163v-16.943h14.047c2.492,0,4.194-1.659,4.194-4.163v-35.296c0-2.469-1.702-4.171-4.193-4.171ZM87.447-15.615c0,0.992-0.754,1.782-1.778,1.782h-10.54v-31.158h10.54c1.024,0,1.778,0.789,1.778,1.795Z"/></g><g id="Light-M" transform="translate(1095 1126)"><path d="M91.182-52.393h-14.156v-11.987c0-2.859-1.924-4.816-4.815-4.816h-55.853c-2.846,0-4.792,1.957-4.792,4.816v74.556c0,2.859,1.946,4.816,4.793,4.816h55.853c2.891,0,4.815-1.957,4.815-4.816v-17.14h14.156c2.858,0,4.825-1.924,4.825-4.816v-35.777c0-2.87-1.967-4.837-4.825-4.837ZM89.145-16.431c0,1.027-0.797,1.846-1.835,1.846h-10.283v-30.93h10.283c1.039,0,1.835,0.816,1.835,1.88Z"/></g><g id="Regular-M" transform="translate(1391 1126)"><path d="M92.84-53.634h-14.247v-11.983c0-3.185-2.143-5.356-5.331-5.356h-56.925c-3.165,0-5.32,2.17-5.32,5.355v76.201c0,3.185,2.155,5.355,5.32,5.355h56.925c3.188,0,5.331-2.17,5.331-5.356v-17.303h14.247c3.161,0,5.347-2.143,5.347-5.355v-36.174c0-3.201-2.186-5.387-5.347-5.387ZM90.547-17.105c0,1.055-0.832,1.898-1.883,1.898h-10.071v-30.743h10.071c1.051,0,1.883,0.839,1.883,1.95Z"/></g><g id="Medium-M" transform="translate(1687 1126)"><path d="M94.411-54.81h-14.333v-11.979c0-3.494-2.35-5.866-5.821-5.866h-57.942c-3.467,0-5.819,2.373-5.819,5.866v77.76c0,3.494,2.352,5.866,5.819,5.866h57.942c3.47,0,5.821-2.373,5.821-5.866v-17.457h14.333c3.448,0,5.841-2.35,5.841-5.866v-36.549c0-3.514-2.393-5.908-5.841-5.908ZM91.876-17.744c0,1.081-0.865,1.948-1.928,1.948h-9.87v-30.565h9.87c1.062,0,1.928,0.861,1.928,2.016Z"/></g><g id="Semibold-M" transform="translate(1983 1126)"><path d="M95.714-55.777h-14.406v-11.978c0-3.747-2.52-6.285-6.223-6.285h-58.78c-3.714,0-6.228,2.539-6.228,6.285v79.046c0,3.747,2.515,6.286,6.228,6.286h58.78c3.703,0,6.223-2.539,6.223-6.286v-17.585h14.406c3.684,0,6.247-2.52,6.247-6.286v-36.863c0-3.771-2.563-6.334-6.247-6.334ZM92.979-18.267c0,1.102-0.892,1.989-1.964,1.989h-9.707v-30.421h9.707c1.072,0,1.964,0.878,1.964,2.07Z"/></g><g id="Bold-M" transform="translate(2279 1126)"><path d="M97.284-56.953h-14.492v-11.975c0-4.055-2.728-6.797-6.712-6.797h-59.796c-4.016,0-6.728,2.741-6.728,6.797v80.604c0,4.055,2.712,6.797,6.728,6.797h59.796c3.984,0,6.712-2.741,6.712-6.797v-17.739h14.492c3.971,0,6.741-2.728,6.741-6.796v-37.238c0-4.085-2.771-6.855-6.741-6.855ZM94.308-18.906c0,1.129-0.925,2.038-2.009,2.038h-9.506v-30.243h9.506c1.084,0,2.009,0.899,2.009,2.136Z"/></g><g id="Heavy-M" transform="translate(2575 1126)"><path d="M99.728-58.782h-14.625v-11.969c0-4.535-3.05-7.591-7.473-7.591h-61.377c-4.486,0-7.505,3.056-7.505,7.591v83.028c0,4.535,3.019,7.591,7.505,7.591h61.377c4.423,0,7.473-3.056,7.473-7.591v-17.978h14.625c4.417,0,7.51-3.05,7.51-7.591v-37.823c0-4.573-3.093-7.666-7.51-7.666ZM96.374-19.9c0,1.17-0.977,2.116-2.079,2.116h-9.193v-29.967h9.193c1.102,0,2.079,0.933,2.079,2.24Z"/></g><g id="Black-M" transform="translate(2871 1126)"><path d="M101.561-60.157h-14.726v-11.965c0-4.896-3.293-8.189-8.045-8.189h-62.564c-4.839,0-8.089,3.293-8.089,8.189v84.848c0,4.896,3.249,8.189,8.089,8.189h62.564c4.752,0,8.045-3.293,8.045-8.189v-18.158h14.726c4.753,0,8.088-3.293,8.088-8.189v-38.262c0-4.939-3.336-8.275-8.088-8.275ZM97.925-20.647c0,1.202-1.016,2.174-2.131,2.174h-8.958v-29.759h8.958c1.115,0,2.131,0.959,2.131,2.318Z"/></g><g id="Ultralight-L" transform="translate(487 1556)"><path d="M108.1-53.7h-17.8v-15.3c0-2.8-1.9-4.8-4.9-4.8h-68.6c-2.8,0-4.8,2-4.8,4.8v91.1c0,2.8,2,4.8,4.8,4.8h68.6c3,0,4.9-2,4.9-4.8v-21.5h17.8c2.9,0,4.9-1.9,4.9-4.8v-44.7c0-2.8-2-4.8-4.9-4.8ZM106.1-9.2c0,1.2-0.9,2.2-2.2,2.2h-13.6v-39.9h13.6c1.3,0,2.2,1,2.2,2.2Z"/></g><g id="Thin-L" transform="translate(783 1556)"><path d="M109.366-54.704h-17.863v-15.284c0-3.069-2.082-5.243-5.319-5.243h-69.446c-3.069,0-5.235,2.174-5.235,5.243v92.397c0,3.069,2.166,5.243,5.235,5.243h69.446c3.237,0,5.319-2.174,5.319-5.243v-21.619h17.863c3.145,0,5.327-2.082,5.327-5.243v-44.993c0-3.077-2.182-5.259-5.327-5.259ZM107.16-9.762c0,1.232-0.932,2.248-2.24,2.248h-13.418v-39.734h13.418c1.308,0,2.24,1.024,2.24,2.263Z"/></g><g id="Light-L" transform="translate(1079 1556)"><path d="M111.806-56.642h-17.985v-15.254c0-3.588-2.433-6.097-6.128-6.097h-71.079c-3.588,0-6.074,2.51-6.074,6.097v94.899c0,3.588,2.486,6.097,6.074,6.097h71.078c3.695,0,6.128-2.51,6.128-6.097v-21.847h17.985c3.618,0,6.151-2.433,6.151-6.097v-45.557c0-3.611-2.533-6.144-6.151-6.144ZM109.204-10.845c0,1.293-0.993,2.339-2.316,2.339h-13.067v-39.414h13.067c1.323,0,2.316,1.069,2.316,2.385Z"/></g><g id="Regular-L" transform="translate(1374 1556)"><path d="M113.705-58.149h-18.08v-15.23c0-3.991-2.706-6.762-6.757-6.762h-72.348c-3.991,0-6.727,2.771-6.727,6.762v96.845c0,3.991,2.736,6.762,6.727,6.762h72.348c4.051,0,6.756-2.771,6.756-6.762v-22.025h18.08c3.986,0,6.791-2.706,6.791-6.762v-45.996c0-4.026-2.806-6.832-6.791-6.832ZM110.794-11.687c0,1.34-1.04,2.41-2.375,2.41h-12.794v-39.164h12.794c1.335,0,2.375,1.105,2.375,2.48Z"/></g><g id="Medium-L" transform="translate(1670 1556)"><path d="M115.512-59.584h-18.171v-15.207c0-4.375-2.965-7.394-7.355-7.394h-73.557c-4.375,0-7.348,3.019-7.348,7.394v98.698c0,4.375,2.973,7.394,7.348,7.394h73.557c4.39,0,7.355-3.019,7.355-7.394v-22.195h18.171c4.336,0,7.402-2.966,7.402-7.394v-46.414c0-4.422-3.066-7.487-7.402-7.487ZM112.308-12.489c0,1.385-1.085,2.478-2.432,2.478h-12.534v-38.927h12.534c1.346,0,2.432,1.139,2.432,2.571Z"/></g><g id="Semibold-L" transform="translate(1967 1556)"><path d="M117.049-60.803h-18.247v-15.188c0-4.702-3.186-7.932-7.864-7.932h-74.585c-4.702,0-7.876,3.23-7.876,7.932v100.273c0,4.702,3.175,7.932,7.876,7.932h74.585c4.678,0,7.864-3.231,7.864-7.932v-22.339h18.247c4.634,0,7.92-3.186,7.92-7.932v-46.77c0-4.758-3.286-8.044-7.92-8.044ZM113.595-13.171c0,1.424-1.124,2.536-2.48,2.536h-12.314v-38.725h12.314c1.356,0,2.48,1.168,2.48,2.647Z"/></g><g id="Bold-L" transform="translate(2262 1556)"><path d="M118.857-62.238h-18.338v-15.166c0-5.086-3.446-8.565-8.463-8.565h-75.794c-5.086,0-8.498,3.479-8.498,8.565v102.126c0,5.086,3.412,8.565,8.498,8.565h75.794c5.017,0,8.463-3.479,8.463-8.565v-22.508h18.338c4.984,0,8.53-3.446,8.53-8.565v-47.188c0-5.153-3.546-8.699-8.53-8.699ZM115.109-13.973c0,1.469-1.169,2.603-2.536,2.603h-12.054v-38.488h12.054c1.367,0,2.536,1.202,2.536,2.738Z"/></g><g id="Heavy-L" transform="translate(2558 1556)"><path d="M121.659-64.463h-18.478v-15.131c0-5.681-3.849-9.546-9.392-9.546h-77.668c-5.681,0-9.461,3.864-9.461,9.546v104.998c0,5.681,3.78,9.546,9.461,9.546h77.668c5.542,0,9.392-3.864,9.392-9.546v-22.771h18.478c5.527,0,9.476-3.849,9.476-9.546v-47.836c0-5.766-3.949-9.715-9.476-9.715ZM117.456-15.217c0,1.539-1.239,2.708-2.624,2.708h-11.651v-38.12h11.651c1.385,0,2.624,1.254,2.624,2.878Z"/></g><g id="Black-L" transform="translate(2854 1556)"><path d="M124.1-66.4h-18.6v-15.1c0-6.2-4.2-10.4-10.2-10.4h-79.3c-6.2,0-10.3,4.2-10.3,10.4v107.5c0,6.2,4.1,10.4,10.3,10.4h79.3c6,0,10.2-4.2,10.2-10.4v-23h18.6c6,0,10.3-4.2,10.3-10.4v-48.4c0-6.3-4.3-10.6-10.3-10.6ZM119.5-16.3c0,1.6-1.3,2.8-2.7,2.8h-11.3v-37.8h11.3c1.4,0,2.7,1.3,2.7,3Z"/></g></g></svg>