<?xml version="1.0" encoding="UTF-8" standalone="yes"?>
<!DOCTYPE svg PUBLIC "-//W3C//DTD SVG 1.1//EN" "http://www.w3.org/Graphics/SVG/1.1/DTD/svg11.dtd">
<svg xmlns="http://www.w3.org/2000/svg" xmlns:xlink="http://www.w3.org/1999/xlink" version="1.1" width="3300" height="2200"><!--glyph: "uni100000.medium", point size: 100.000000, font version: "Version 15.0d4e20", template writer version: "2"--><style>
     /*  */
     .text {
       stroke:none;
       fill:black;
       font-family:-apple-system,"SF Pro Display","SF Pro Text",Helvetica,sans-serif;
     }
     /*  */
 </style><g id="Notes"><rect height="2200" id="artboard" style="fill:white;opacity:1" width="3300" x="0" y="0"/><line id="" style="fill:none;stroke:black;opacity:1;stroke-width:0.5;" x1="263" x2="3036" y1="292" y2="292"/><text class="text" style="font-weight:bold;" transform="translate(263 322)">Weight/Scale Variations</text><text class="text" style="text-anchor:middle;" transform="translate(559.711 322)">Ultralight</text><text class="text" style="text-anchor:middle;" transform="translate(856.422 322)">Thin</text><text class="text" style="text-anchor:middle;" transform="translate(1153.13 322)">Light</text><text class="text" style="text-anchor:middle;" transform="translate(1449.84 322)">Regular</text><text class="text" style="text-anchor:middle;" transform="translate(1746.56 322)">Medium</text><text class="text" style="text-anchor:middle;" transform="translate(2043.27 322)">Semibold</text><text class="text" style="text-anchor:middle;" transform="translate(2339.98 322)">Bold</text><text class="text" style="text-anchor:middle;" transform="translate(2636.69 322)">Heavy</text><text class="text" style="text-anchor:middle;" transform="translate(2933.4 322)">Black</text><line id="" style="fill:none;stroke:black;opacity:1;stroke-width:0.5;" x1="263" x2="3036" y1="1903" y2="1903"/><g id="" transform="translate(263 1933)"><path d="M 9.24805 0.830078 C 13.5547 0.830078 17.1387 -2.74414 17.1387 -7.05078 C 17.1387 -11.3574 13.5449 -14.9316 9.23828 -14.9316 C 4.94141 -14.9316 1.36719 -11.3574 1.36719 -7.05078 C 1.36719 -2.74414 4.95117 0.830078 9.24805 0.830078 Z M 9.24805 -0.654297 C 5.70312 -0.654297 2.87109 -3.49609 2.87109 -7.05078 C 2.87109 -10.6055 5.69336 -13.4473 9.23828 -13.4473 C 12.793 -13.4473 15.6348 -10.6055 15.6445 -7.05078 C 15.6543 -3.49609 12.8027 -0.654297 9.24805 -0.654297 Z M 9.22852 -3.42773 C 9.69727 -3.42773 9.9707 -3.74023 9.9707 -4.25781 L 9.9707 -6.31836 L 12.1973 -6.31836 C 12.6953 -6.31836 13.0371 -6.57227 13.0371 -7.04102 C 13.0371 -7.51953 12.7148 -7.7832 12.1973 -7.7832 L 9.9707 -7.7832 L 9.9707 -10.0098 C 9.9707 -10.5273 9.69727 -10.8496 9.22852 -10.8496 C 8.75977 -10.8496 8.50586 -10.5078 8.50586 -10.0098 L 8.50586 -7.7832 L 6.29883 -7.7832 C 5.78125 -7.7832 5.44922 -7.51953 5.44922 -7.04102 C 5.44922 -6.57227 5.80078 -6.31836 6.29883 -6.31836 L 8.50586 -6.31836 L 8.50586 -4.25781 C 8.50586 -3.75977 8.75977 -3.42773 9.22852 -3.42773 Z"/></g><g id="" transform="translate(281.506 1933)"><path d="M 11.709 2.91016 C 17.1484 2.91016 21.6699 -1.60156 21.6699 -7.05078 C 21.6699 -12.4902 17.1387 -17.0117 11.6992 -17.0117 C 6.25 -17.0117 1.74805 -12.4902 1.74805 -7.05078 C 1.74805 -1.60156 6.25977 2.91016 11.709 2.91016 Z M 11.709 1.25 C 7.09961 1.25 3.41797 -2.44141 3.41797 -7.05078 C 3.41797 -11.6504 7.08984 -15.3516 11.6992 -15.3516 C 16.2988 -15.3516 20 -11.6504 20.0098 -7.05078 C 20.0195 -2.44141 16.3086 1.25 11.709 1.25 Z M 11.6797 -2.41211 C 12.207 -2.41211 12.5195 -2.77344 12.5195 -3.33984 L 12.5195 -6.23047 L 15.5762 -6.23047 C 16.123 -6.23047 16.5039 -6.51367 16.5039 -7.03125 C 16.5039 -7.55859 16.1426 -7.86133 15.5762 -7.86133 L 12.5195 -7.86133 L 12.5195 -10.9277 C 12.5195 -11.5039 12.207 -11.8555 11.6797 -11.8555 C 11.1621 -11.8555 10.8789 -11.4844 10.8789 -10.9277 L 10.8789 -7.86133 L 7.83203 -7.86133 C 7.25586 -7.86133 6.89453 -7.55859 6.89453 -7.03125 C 6.89453 -6.51367 7.28516 -6.23047 7.83203 -6.23047 L 10.8789 -6.23047 L 10.8789 -3.33984 C 10.8789 -2.79297 11.1621 -2.41211 11.6797 -2.41211 Z"/></g><g id="" transform="translate(304.914 1933)"><path d="M 14.9707 5.67383 C 21.9336 5.67383 27.6855 -0.078125 27.6855 -7.04102 C 27.6855 -14.0039 21.9238 -19.7559 14.9609 -19.7559 C 7.99805 -19.7559 2.25586 -14.0039 2.25586 -7.04102 C 2.25586 -0.078125 8.00781 5.67383 14.9707 5.67383 Z M 14.9707 3.85742 C 8.92578 3.85742 4.08203 -1.00586 4.08203 -7.04102 C 4.08203 -13.0762 8.91602 -17.9395 14.9609 -17.9395 C 20.9961 -17.9395 25.8594 -13.0762 25.8691 -7.04102 C 25.8789 -1.00586 21.0059 3.85742 14.9707 3.85742 Z M 14.9414 -1.06445 C 15.5176 -1.06445 15.8594 -1.45508 15.8594 -2.06055 L 15.8594 -6.13281 L 20.0977 -6.13281 C 20.6934 -6.13281 21.1133 -6.46484 21.1133 -7.02148 C 21.1133 -7.59766 20.7227 -7.93945 20.0977 -7.93945 L 15.8594 -7.93945 L 15.8594 -12.1875 C 15.8594 -12.8027 15.5176 -13.1934 14.9414 -13.1934 C 14.3848 -13.1934 14.0625 -12.7832 14.0625 -12.1875 L 14.0625 -7.93945 L 9.82422 -7.93945 C 9.20898 -7.93945 8.80859 -7.59766 8.80859 -7.02148 C 8.80859 -6.46484 9.23828 -6.13281 9.82422 -6.13281 L 14.0625 -6.13281 L 14.0625 -2.06055 C 14.0625 -1.47461 14.3848 -1.06445 14.9414 -1.06445 Z"/></g><text class="text" style="font-weight:bold;" transform="translate(263 1953)">Design Variations</text><text class="text" transform="translate(263 1971)">Symbols are supported in up to nine weights and three scales.</text><text class="text" transform="translate(263 1989)">For optimal layout with text and other symbols, vertically align</text><text class="text" transform="translate(263 2007)">symbols with the adjacent text.</text><rect height="14" id="" style="fill:#00AEEF;stroke:none;opacity:0.4;" width="3" x="776" y="1919"/><g id="" transform="translate(779 1933)"><path d="M 10.5273 0 L 12.373 0 L 7.17773 -14.0918 L 5.43945 -14.0918 L 0.244141 0 L 2.08984 0 L 3.50586 -4.0332 L 9.11133 -4.0332 Z M 6.2793 -11.9531 L 6.33789 -11.9531 L 8.59375 -5.52734 L 4.02344 -5.52734 Z"/></g><rect height="14" id="" style="fill:#00AEEF;stroke:none;opacity:0.4;" width="3" x="791.617" y="1919"/><text class="text" style="font-weight:bold;" transform="translate(776 1953)">Side Bearings</text><text class="text" transform="translate(776 1971)">Horizontal padding on the left and right side of each symbol</text><text class="text" transform="translate(776 1989)">can be adjusted by modifying the width of the blue rectangles.</text><text class="text" transform="translate(776 2007)">Modifications are automatically applied proportionally to all</text><text class="text" transform="translate(776 2025)">scales and weights.</text><g id="" transform="translate(1289 1933)"><path d="M 2.96875 2.35352 L 3.80859 3.19336 C 4.84375 4.22852 6.12305 4.15039 7.19727 2.97852 L 16.1621 -6.82617 C 16.5527 -6.74805 16.9629 -6.8457 17.4902 -7.02148 C 18.1738 -7.25586 18.2715 -7.25586 18.3887 -7.13867 C 18.5352 -7.01172 18.4863 -6.89453 18.2422 -6.25 C 17.8809 -5.33203 17.8125 -4.79492 18.5547 -4.02344 L 19.4238 -3.13477 C 20.2734 -2.24609 21.3281 -2.26562 22.2168 -3.14453 L 25.0586 -5.97656 C 25.9473 -6.86523 25.957 -7.92969 25.0781 -8.7793 L 24.1797 -9.64844 C 23.4082 -10.4004 22.8711 -10.3516 21.9629 -9.98047 C 21.3184 -9.72656 21.2012 -9.6875 21.0645 -9.81445 C 20.9375 -9.93164 20.9473 -10.0391 21.1816 -10.7129 C 21.5332 -11.6895 21.5723 -12.2852 20.752 -13.0957 L 19.3359 -14.5117 C 15.1953 -18.6133 11.2305 -18.7402 7.65625 -15.4395 C 7.08008 -14.9023 6.99219 -14.1504 7.53906 -13.6133 L 7.79297 -13.3594 C 8.22266 -12.9297 8.86719 -12.8418 9.41406 -13.1152 C 11.0645 -13.9453 12.2559 -14.0234 13.457 -12.9785 L 13.0273 -11.416 C 12.8516 -10.8008 12.793 -10.3418 12.9199 -9.93164 L 3.18359 -1.04492 C 2.02148 0.0292969 1.93359 1.32812 2.96875 2.35352 Z M 8.96484 -14.4922 C 8.89648 -14.5703 8.86719 -14.6582 8.99414 -14.7559 C 11.709 -17.2852 15.0391 -16.8457 18.3496 -13.5254 L 19.6973 -12.168 C 20.0879 -11.7773 20.0977 -11.582 19.8828 -10.8691 C 19.6582 -10.127 19.502 -9.53125 20.1465 -8.88672 C 20.8105 -8.22266 21.2891 -8.41797 22.207 -8.63281 C 22.9004 -8.79883 23.0664 -8.79883 23.4473 -8.41797 L 24.0918 -7.77344 C 24.4043 -7.48047 24.4141 -7.32422 24.0723 -6.97266 L 21.2207 -4.13086 C 20.8887 -3.79883 20.7227 -3.79883 20.4297 -4.10156 L 19.7852 -4.75586 C 19.4141 -5.13672 19.4141 -5.30273 19.5801 -6.01562 C 19.7852 -6.88477 19.9805 -7.38281 19.3262 -8.04688 C 18.6719 -8.7207 18.0762 -8.57422 17.3438 -8.33008 C 16.5625 -8.06641 16.3281 -8.06641 15.8984 -8.49609 L 14.6094 -9.78516 C 14.1699 -10.2246 14.1309 -10.4395 14.2676 -10.9082 L 15.0293 -13.3984 C 13.3887 -15.2832 11.4941 -15.5566 9.20898 -14.4434 C 9.11133 -14.3945 9.04297 -14.4141 8.96484 -14.4922 Z M 3.96484 1.36719 C 3.52539 0.927734 3.54492 0.537109 4.14062 -0.00976562 L 13.7402 -8.81836 L 15 -7.55859 L 6.17188 2.02148 C 5.625 2.60742 5.24414 2.64648 4.79492 2.19727 Z"/></g><text class="text" style="font-weight:bold;" transform="translate(1289 1953)">Exporting</text><text class="text" transform="translate(1289 1971)">Symbols should be outlined when exporting to ensure the</text><text class="text" transform="translate(1289 1989)">design is preserved when submitting to Xcode.</text><text class="text" transform="translate(263 726)">Small</text><text class="text" transform="translate(263 1156)">Medium</text><text class="text" transform="translate(263 1586)">Large</text></g><g id="Guides"><g id="H-reference" style="fill:#27AAE1;stroke:none;" transform="translate(339 696)"><path d="M 54.9316 0 L 57.666 0 L 30.5664 -70.459 L 28.0762 -70.459 L 0.976562 0 L 3.66211 0 L 12.9395 -24.4629 L 45.7031 -24.4629 Z M 29.1992 -67.0898 L 29.4434 -67.0898 L 44.8242 -26.709 L 13.8184 -26.709 Z"/></g><line id="Baseline-S" style="fill:none;stroke:#27AAE1;opacity:1;stroke-width:0.577;" x1="263" x2="3036" y1="696" y2="696"/><line id="Capline-S" style="fill:none;stroke:#27AAE1;opacity:1;stroke-width:0.577;" x1="263" x2="3036" y1="625.541" y2="625.541"/><g id="H-reference" style="fill:#27AAE1;stroke:none;" transform="translate(339 1126)"><path d="M 54.9316 0 L 57.666 0 L 30.5664 -70.459 L 28.0762 -70.459 L 0.976562 0 L 3.66211 0 L 12.9395 -24.4629 L 45.7031 -24.4629 Z M 29.1992 -67.0898 L 29.4434 -67.0898 L 44.8242 -26.709 L 13.8184 -26.709 Z"/></g><line id="Baseline-M" style="fill:none;stroke:#27AAE1;opacity:1;stroke-width:0.577;" x1="263" x2="3036" y1="1126" y2="1126"/><line id="Capline-M" style="fill:none;stroke:#27AAE1;opacity:1;stroke-width:0.577;" x1="263" x2="3036" y1="1055.54" y2="1055.54"/><g id="H-reference" style="fill:#27AAE1;stroke:none;" transform="translate(339 1556)"><path d="M 54.9316 0 L 57.666 0 L 30.5664 -70.459 L 28.0762 -70.459 L 0.976562 0 L 3.66211 0 L 12.9395 -24.4629 L 45.7031 -24.4629 Z M 29.1992 -67.0898 L 29.4434 -67.0898 L 44.8242 -26.709 L 13.8184 -26.709 Z"/></g><line id="Baseline-L" style="fill:none;stroke:#27AAE1;opacity:1;stroke-width:0.577;" x1="263" x2="3036" y1="1556" y2="1556"/><line id="Capline-L" style="fill:none;stroke:#27AAE1;opacity:1;stroke-width:0.577;" x1="263" x2="3036" y1="1485.54" y2="1485.54"/><rect height="119.336" id="left-margin" style="fill:#00AEEF;stroke:none;opacity:0.4;" width="39.300000" x="1391" y="1030.79"/><rect height="119.336" id="right-margin" style="fill:#00AEEF;stroke:none;opacity:0.4;" width="38.600000" x="1459.9269" y="1030.79"/></g><g id="Symbols"><g id="Ultralight-S" transform="translate(515 696)"><path d="M35.1-56.4c0,7.6,4.5,11,8.5,11.9c0.6,0.2,0.9,1,0.9,2l-1.8,41.8c-0.1,1.9,0.9,3.1,2.3,3.1h1.9c1.2,0,2.3-1.2,2.2-3.1l-1.8-41.9c0-1.1,0.5-1.8,1.5-2.1c3.6-1.3,7.4-4.8,7.4-11.7c0-8.7-4.7-15.9-10.5-15.9c-5.9,0-10.6,7.2-10.6,15.9Z"/></g><g id="Thin-S" transform="translate(811 696)"><path d="M34.832-56.616c0,7.617,4.439,11.112,8.448,12.116c0.678,0.252,1.03,1.138,1.004,2.293l-1.999,41.256c-0.126,2.047,0.995,3.35,2.593,3.35h2.15c1.355,0,2.611-1.295,2.485-3.342l-1.999-41.391c-0.026-1.238,0.552-2.033,1.655-2.437c3.583-1.395,7.296-4.964,7.296-11.847c0-8.916-4.821-16.297-10.768-16.297c-6.047,0-10.868,7.381-10.868,16.297Z"/></g><g id="Light-S" transform="translate(1107 696)"><path d="M34.386-56.976c0,7.646,4.339,11.299,8.362,12.476c0.807,0.338,1.245,1.368,1.176,2.783l-2.329,40.35c-0.169,2.291,1.153,3.768,3.083,3.768h2.568c1.614,0,3.129-1.453,2.96-3.745l-2.329-40.542c-0.069-1.468,0.638-2.422,1.914-2.998c3.554-1.553,7.124-5.237,7.124-12.091c0-9.276-5.022-16.959-11.214-16.959c-6.291,0-11.314,7.683-11.314,16.959Z"/></g><g id="Regular-S" transform="translate(1403 696)"><path d="M34.03-57.263c0,7.669,4.258,11.449,8.293,12.763c0.911,0.407,1.418,1.552,1.314,3.174l-2.594,39.625c-0.204,2.487,1.28,4.101,3.474,4.101h2.901c1.822,0,3.543-1.58,3.34-4.067l-2.594-39.863c-0.104-1.653,0.707-2.732,2.122-3.447c3.531-1.68,6.986-5.456,6.986-12.287c0-9.563-5.183-17.489-11.571-17.489c-6.487,0-11.67,7.925-11.67,17.489Z"/></g><g id="Medium-S" transform="translate(1699 696)"><path d="M33.65-57.569c0,7.694,4.173,11.608,8.219,13.069c1.021,0.481,1.601,1.748,1.461,3.59l-2.875,38.854c-0.24,2.695,1.414,4.456,3.89,4.456h3.256c2.042,0,3.983-1.714,3.743-4.409l-2.875-39.141c-0.14-1.848,0.781-3.062,2.342-3.924c3.506-1.814,6.839-5.689,6.839-12.495c0-9.869-5.355-18.051-11.95-18.051c-6.695,0-12.05,8.182-12.05,18.051Z"/></g><g id="Semibold-S" transform="translate(1995 696)"><path d="M33.383-57.785c0,7.711,4.112,11.72,8.168,13.285c1.099,0.532,1.731,1.886,1.565,3.883l-3.074,38.31c-0.266,2.842,1.509,4.707,4.183,4.707h3.506c2.197,0,4.294-1.809,4.028-4.651l-3.074-38.632c-0.166-1.986,0.832-3.296,2.497-4.261c3.489-1.909,6.735-5.852,6.735-12.642c0-10.085-5.476-18.448-12.217-18.448c-6.842,0-12.317,8.363-12.317,18.448Z"/></g><g id="Bold-S" transform="translate(2292 696)"><path d="M33.004-58.091c0,7.735,4.027,11.879,8.094,13.591c1.209,0.606,1.914,2.082,1.712,4.299l-3.355,37.539c-0.303,3.05,1.644,5.061,4.599,5.061h3.861c2.417,0,4.735-1.944,4.432-4.993l-3.355-37.91c-0.203-2.182,0.906-3.626,2.717-4.737c3.465-2.044,6.589-6.085,6.589-12.85c0-10.391-5.647-19.011-12.596-19.011c-7.05,0-12.696,8.62-12.696,19.011Z"/></g><g id="Heavy-S" transform="translate(2587 696)"><path d="M32.491-58.504c0,7.768,3.911,12.094,7.995,14.004c1.358,0.705,2.163,2.347,1.91,4.862l-3.736,36.497c-0.353,3.331,1.826,5.541,5.162,5.541h4.341c2.715,0,5.33-2.126,4.978-5.457l-3.736-36.934c-0.252-2.447,1.005-4.073,3.015-5.383c3.432-2.226,6.39-6.399,6.39-13.131c0-10.804-5.878-19.772-13.109-19.772c-7.331,0-13.209,8.968-13.209,19.772Z"/></g><g id="Black-S" transform="translate(2883 696)"><path d="M32-58.9c0,7.8,3.8,12.3,7.9,14.4c1.5,0.8,2.4,2.6,2.1,5.4l-4.1,35.5c-0.4,3.6,2,6,5.7,6h4.8c3,0,5.9-2.3,5.5-5.9l-4.1-36c-0.3-2.7,1.1-4.5,3.3-6c3.4-2.4,6.2-6.7,6.2-13.4c0-11.2-6.1-20.5-13.6-20.5c-7.6,0-13.7,9.3-13.7,20.5Z"/></g><g id="Ultralight-M" transform="translate(503 1126)"><path d="M39.88-61.899c0,9.019,5.189,13.362,9.963,14.69c1.071,0.328,1.714,1.685,1.672,3.541l-2.182,50.757c-0.099,2.283,1.07,3.825,2.809,3.825h2.324c1.497,0,2.852-1.542,2.752-3.825l-2.182-50.985c-0.042-1.914,0.972-3.127,2.657-3.855c4.202-1.814,8.305-6.129,8.305-14.147c0-10.759-5.815-19.631-12.987-19.631c-7.315,0-13.13,8.873-13.13,19.631Z"/></g><g id="Thin-M" transform="translate(799 1126)"><path d="M39.735-62.178c0,9.125,5.173,13.603,9.998,15.065c1.152,0.393,1.849,1.84,1.772,3.859l-2.47,50.373c-0.138,2.498,1.207,4.187,3.227,4.187h2.678c1.717,0,3.292-1.672,3.154-4.174l-2.471-50.645c-0.073-2.054,1.014-3.371,2.808-4.214c4.223-1.932,8.29-6.362,8.29-14.451c0-11.111-6.011-20.281-13.425-20.281c-7.55,0-13.56,9.17-13.56,20.281Z"/></g><g id="Light-M" transform="translate(1095 1126)"><path d="M39.502-62.638c0,9.303,5.146,14.001,10.057,15.687c1.285,0.502,2.071,2.096,1.937,4.381l-2.946,49.752c-0.202,2.853,1.435,4.783,3.917,4.783h3.261c2.08,0,4.017-1.886,3.816-4.749l-2.946-50.096c-0.124-2.284,1.084-3.77,3.055-4.804c4.258-2.127,8.267-6.746,8.267-14.954c0-11.694-6.334-21.355-14.148-21.355c-7.936,0-14.27,9.661-14.27,21.355Z"/></g><g id="Regular-M" transform="translate(1391 1126)"><path d="M39.31-63.018c0,9.45,5.125,14.331,10.107,16.2c1.395,0.591,2.254,2.308,2.072,4.812l-3.339,49.239c-0.254,3.146,1.622,5.276,4.487,5.276h3.743c2.38,0,4.617-2.063,4.363-5.224l-3.339-49.642c-0.166-2.474,1.141-4.1,3.259-5.291c4.287-2.288,8.249-7.063,8.249-15.369c0-12.175-6.601-22.242-14.745-22.242c-8.256,0-14.857,10.067-14.857,22.242Z"/></g><g id="Medium-M" transform="translate(1687 1126)"><path d="M39.128-63.378c0,9.589,5.105,14.643,10.153,16.686c1.499,0.675,2.428,2.508,2.201,5.221l-3.711,48.752c-0.304,3.423,1.8,5.743,5.027,5.743h4.2c2.664,0,5.185-2.231,4.881-5.675l-3.711-49.212c-0.206-2.654,1.195-4.412,3.452-5.752c4.314-2.441,8.231-7.364,8.231-15.763c0-12.631-6.853-23.082-15.311-23.082c-8.559,0-15.412,10.451-15.412,23.082Z"/></g><g id="Semibold-M" transform="translate(1983 1126)"><path d="M38.951-63.674c0,9.692,5.079,14.886,10.178,17.072c1.588,0.745,2.575,2.676,2.312,5.565l-4.012,48.308c-0.344,3.648,1.944,6.121,5.465,6.121h4.571c2.895,0,5.646-2.367,5.302-6.039l-4.012-48.815c-0.239-2.808,1.243-4.677,3.617-6.142c4.331-2.566,8.2-7.608,8.2-16.071c0-12.995-7.056-23.754-15.763-23.754c-8.801,0-15.857,10.758-15.857,23.754Z"/></g><g id="Bold-M" transform="translate(2279 1126)"><path d="M38.769-64.034c0,9.832,5.059,15.198,10.225,17.558c1.692,0.83,2.748,2.876,2.44,5.973l-4.384,47.822c-0.394,3.925,2.122,6.588,6.005,6.588h5.028c3.179,0,6.214-2.535,5.82-6.49l-4.385-48.385c-0.279-2.988,1.297-4.989,3.81-6.603c4.358-2.719,8.183-7.909,8.183-16.464c0-13.451-7.309-24.594-16.329-24.594c-9.104,0-16.413,11.143-16.413,24.594Z"/></g><g id="Heavy-M" transform="translate(2575 1126)"><path d="M38.486-64.593c0,10.048,5.027,15.683,10.297,18.315c1.854,0.961,3.018,3.188,2.64,6.609l-4.963,47.066c-0.472,4.357,2.398,7.314,6.844,7.314h5.738c3.621,0,7.098-2.796,6.626-7.19l-4.963-47.716c-0.34-3.268,1.382-5.475,4.111-7.32c4.401-2.956,8.155-8.377,8.155-17.077c0-14.16-7.702-25.901-17.209-25.901c-9.575,0-17.277,11.74-17.277,25.901Z"/></g><g id="Black-M" transform="translate(2871 1126)"><path d="M38.279-65.014c0,10.213,5.005,16.051,10.355,18.885c1.975,1.06,3.22,3.421,2.79,7.085l-5.399,46.505c-0.53,4.682,2.606,7.86,7.476,7.86h6.273c3.953,0,7.763-2.992,7.233-7.717l-5.399-47.221c-0.387-3.477,1.445-5.839,4.335-7.857c4.434-3.134,8.138-8.728,8.138-17.54c0-14.695-7.999-26.886-17.872-26.886c-9.93,0-17.929,12.191-17.929,26.886Z"/></g><g id="Ultralight-L" transform="translate(487 1556)"><path d="M46.2-69.2c0,10.9,6.1,16.5,11.9,18.4c1.7,0.5,2.8,2.6,2.7,5.6l-2.7,62.6c-0.1,2.8,1.3,4.8,3.5,4.8h2.9c1.9,0,3.6-2,3.5-4.8l-2.7-63c-0.1-3,1.6-4.9,4.2-6.2c5-2.5,9.5-7.9,9.5-17.4c0-13.5-7.3-24.6-16.3-24.6c-9.2,0-16.5,11.1-16.5,24.6Z"/></g><g id="Thin-L" transform="translate(783 1556)"><path d="M46.232-69.509c0,11.098,6.14,16.856,12.035,18.906c1.771,0.571,2.919,2.75,2.779,5.893l-3.048,62.481c-0.147,3.061,1.466,5.235,3.998,5.235h3.319c2.161,0,4.122-2.15,3.975-5.219l-3.048-62.929c-0.132-3.119,1.624-5.114,4.319-6.524c5.063-2.627,9.595-8.177,9.595-17.843c0-13.959-7.553-25.446-16.869-25.446c-9.501,0-17.054,11.488-17.054,25.446Z"/></g><g id="Light-L" transform="translate(1079 1556)"><path d="M46.293-70.103c0,11.479,6.216,17.542,12.294,19.882c1.908,0.709,3.147,3.04,2.932,6.457l-3.719,62.253c-0.239,3.564,1.786,6.074,4.959,6.074h4.128c2.664,0,5.129-2.44,4.89-6.028l-3.719-62.792c-0.193-3.348,1.67-5.525,4.547-7.15c5.185-2.871,9.778-8.711,9.778-18.697c0-14.843-8.041-27.078-17.968-27.078c-10.08,0-18.121,12.235-18.121,27.078Z"/></g><g id="Regular-L" transform="translate(1374 1556)"><path d="M46.34-70.566c0,11.776,6.275,18.076,12.496,20.642c2.015,0.815,3.325,3.265,3.05,6.896l-4.241,62.075c-0.31,3.956,2.036,6.727,5.707,6.727h4.757c3.056,0,5.912-2.666,5.602-6.656l-4.241-62.685c-0.24-3.525,1.705-5.846,4.725-7.636c5.28-3.061,9.92-9.126,9.92-19.362c0-15.532-8.421-28.348-18.822-28.348c-10.531,0-18.952,12.816-18.952,28.348Z"/></g><g id="Medium-L" transform="translate(1670 1556)"><path d="M46.385-71.007c0,12.058,6.332,18.585,12.688,21.365c2.117,0.917,3.495,3.48,3.163,7.314l-4.738,61.905c-0.378,4.329,2.273,7.348,6.419,7.348h5.355c3.429,0,6.658-2.88,6.28-7.255l-4.738-62.583c-0.285-3.695,1.739-6.151,4.895-8.099c5.371-3.241,10.056-9.521,10.056-19.994c0-16.187-8.782-29.557-19.636-29.557c-10.96,0-19.743,13.37-19.743,29.557Z"/></g><g id="Semibold-L" transform="translate(1967 1556)"><path d="M46.424-71.381c0,12.298,6.38,19.017,12.851,21.98c2.203,1.003,3.639,3.663,3.259,7.67l-5.161,61.761c-0.436,4.646,2.475,7.876,7.024,7.876h5.864c3.746,0,7.292-3.063,6.856-7.764l-5.161-62.497c-0.324-3.839,1.768-6.41,5.039-8.493c5.448-3.395,10.171-9.858,10.171-20.532c0-16.744-9.09-30.585-20.327-30.585c-11.325,0-20.415,13.841-20.415,30.585Z"/></g><g id="Bold-L" transform="translate(2262 1556)"><path d="M46.469-71.822c0,12.581,6.436,19.525,13.043,22.703c2.305,1.105,3.808,3.877,3.372,8.088l-5.658,61.592c-0.503,5.019,2.712,8.498,7.736,8.498h6.463c4.119,0,8.037-3.277,7.534-8.363l-5.658-62.395c-0.369-4.008,1.802-6.715,5.208-8.957c5.538-3.576,10.307-10.253,10.307-21.165c0-17.4-9.451-31.794-21.141-31.794c-11.755,0-21.206,14.394-21.206,31.794Z"/></g><g id="Heavy-L" transform="translate(2558 1556)"><path d="M46.539-72.505c0,13.019,6.524,20.314,13.341,23.824c2.463,1.263,4.071,4.21,3.547,8.736l-6.429,61.329c-0.608,5.597,3.08,9.461,8.839,9.461h7.392c4.697,0,9.193-3.61,8.585-9.292l-6.429-62.237c-0.439-4.271,1.854-7.188,5.471-9.675c5.678-3.856,10.517-10.866,10.517-22.146c0-18.415-10.012-33.668-22.402-33.668c-12.42,0-22.432,15.253-22.432,33.668Z"/></g><g id="Black-L" transform="translate(2854 1556)"><path d="M46.6-73.1c0,13.4,6.6,21,13.6,24.8c2.6,1.4,4.3,4.5,3.7,9.3l-7.1,61.1c-0.7,6.1,3.4,10.3,9.8,10.3h8.2c5.2,0,10.2-3.9,9.5-10.1l-7.1-62.1c-0.5-4.5,1.9-7.6,5.7-10.3c5.8-4.1,10.7-11.4,10.7-23c0-19.3-10.5-35.3-23.5-35.3c-13,0-23.5,16-23.5,35.3Z"/></g></g></svg>